<svg version="1.1" id="Layer_1" xmlns="http://www.w3.org/2000/svg" xmlns:xlink="http://www.w3.org/1999/xlink" x="0px" y="0px"
	 viewBox="0 0 889.725 250" enable-background="new 0 0 889.725 250" xml:space="preserve">
<g>
	<path fill="#FFF" d="M0,182.5l30.75-175H65l-30.75,175H0z"/>
	<path fill="#FFF" d="M85.999,135.25l10-57.75h-18.5l5-27.5h19.25l5.75-32.5h31l-6,32.5h33.5l-5,27.5h-33l-9.5,54.75c-0.668,4-1,6.75-1,8.25
		c0,3.836,1.125,6.586,3.375,8.25c2.25,1.668,6.207,2.5,11.875,2.5h10.75l-5.5,31.25h-13.75c-14.5,0-24.793-2.414-30.875-7.25
		c-6.086-4.832-9.125-12.5-9.125-23C84.249,148.25,84.831,142.586,85.999,135.25z"/>
	<path fill="#FFF" d="M273.749,182.5h-30l2.5-15.25h-0.5c-3,4.836-7.711,9.211-14.125,13.125c-6.418,3.914-14.375,5.875-23.875,5.875
		c-11.668,0-21.75-4.5-30.25-13.5s-12.75-21.75-12.75-38.25c0-24.664,6.582-45.539,19.75-62.625
		c13.164-17.082,28.832-25.625,47-25.625c14.164,0,24.25,5.25,30.25,15.75h0.75l2.25-12h32.25L273.749,182.5z M252.749,117.25
		l2.5-13.5c1.664-8.664,0.625-15.539-3.125-20.625c-3.75-5.082-9.96-7.625-18.625-7.625c-10.168,0-18.875,5.375-26.125,16.125
		s-10.875,24.043-10.875,39.875c0,16.336,6.414,24.5,19.25,24.5c7.332,0,14.75-3.332,22.25-10
		C245.499,139.336,250.413,129.75,252.749,117.25z"/>
	<path fill="#FFF" d="M303.245,182.5L335.495,0h33.75l-32.25,182.5H303.245z"/>
	<path fill="#FFF" d="M369.245,182.5L392.495,50h33.75l-23.25,132.5H369.245z M395.495,30.75l5.5-30.75h32.5l-5.5,30.75H395.495z"/>
	<path fill="#FFF" d="M521.493,129.5l29.75,11.25c-9.836,30.336-30.336,45.5-61.5,45.5c-16,0-28.961-5.039-38.875-15.125
		c-9.918-10.082-14.875-23.539-14.875-40.375c0-25.832,6.5-46.375,19.5-61.625s29.332-22.875,49-22.875c17.164,0,30.207,5,39.125,15
		c8.914,10,13.375,23.086,13.375,39.25l-30.5,2.25c0.332-7.664-1.375-14.125-5.125-19.375s-9.793-7.875-18.125-7.875
		c-10.5,0-18.875,4.918-25.125,14.75c-6.25,9.836-9.375,22.336-9.375,37.5c0,19.168,8,28.75,24,28.75
		c4.332,0,8.125-0.75,11.375-2.25s6-3.832,8.25-7c2.25-3.164,3.914-5.875,5-8.125C518.45,136.875,519.825,133.668,521.493,129.5z"/>
</g>
</svg>
