<svg version="1.1" xmlns="http://www.w3.org/2000/svg" xmlns:xlink="http://www.w3.org/1999/xlink" x="0px" y="0px"
	 viewBox="0 0 889.725 250" enable-background="new 0 0 889.725 250" xml:space="preserve">
<g>
	<path fill="#FFF" d="M0,175V0h28l31,99h0.5l31-99h28v175h-19V28H99L62.5,141H56L19.5,28H19v147H0z"/>
	<path fill="#FFF" d="M220.998,178.75c-17.5,0-32-6.207-43.5-18.625c-11.5-12.414-17.25-29.539-17.25-51.375c0-21.664,5.914-38.75,17.75-51.25
		c11.832-12.5,26.164-18.75,43-18.75c16.664,0,30.79,6.25,42.375,18.75c11.582,12.5,17.375,29.586,17.375,51.25
		c0,21.836-5.625,38.961-16.875,51.375C252.624,172.543,238.33,178.75,220.998,178.75z M220.998,160.25
		c11.164,0,20.414-4.539,27.75-13.625c7.332-9.082,11-21.707,11-37.875c0-16.332-3.625-29-10.875-38
		c-7.25-9-16.543-13.5-27.875-13.5c-11.668,0-21.211,4.461-28.625,13.375c-7.418,8.918-11.125,21.625-11.125,38.125
		s3.707,29.211,11.125,38.125C199.787,155.793,209.33,160.25,220.998,160.25z"/>
	<path fill="#FFF" d="M329.497,175V42.5h19.5v12.75h0.5c3.664-4.832,8.914-8.789,15.75-11.875c6.832-3.082,14-4.625,21.5-4.625
		c14.332,0,25.832,4.418,34.5,13.25c8.664,8.836,13,20.836,13,36v87h-20.5V94.5c0-24.664-10-37-30-37
		c-10.336,0-18.543,2.918-24.625,8.75c-6.086,5.836-9.125,13.918-9.125,24.25V175H329.497z"/>
	<path fill="#FFF" d="M543.495,178.75c-17.5,0-32-6.207-43.5-18.625c-11.5-12.414-17.25-29.539-17.25-51.375c0-21.664,5.914-38.75,17.75-51.25
		c11.832-12.5,26.164-18.75,43-18.75c16.664,0,30.789,6.25,42.375,18.75c11.582,12.5,17.375,29.586,17.375,51.25
		c0,21.836-5.625,38.961-16.875,51.375C575.12,172.543,560.827,178.75,543.495,178.75z M543.495,160.25
		c11.164,0,20.414-4.539,27.75-13.625c7.332-9.082,11-21.707,11-37.875c0-16.332-3.625-29-10.875-38s-16.543-13.5-27.875-13.5
		c-11.668,0-21.211,4.461-28.625,13.375c-7.418,8.918-11.125,21.625-11.125,38.125s3.707,29.211,11.125,38.125
		C522.284,155.793,531.827,160.25,543.495,160.25z"/>
</g>
</svg>
