<svg version="1.1" xmlns="http://www.w3.org/2000/svg" xmlns:xlink="http://www.w3.org/1999/xlink" x="0px" y="0px"
	 viewBox="0 0 889.725 250" enable-background="new 0 0 889.725 250" xml:space="preserve">
<g>
	<path fill="#FFF" d="M0,182.5V7.5h74.25c15.5,0,27.957,4.543,37.375,13.625c9.414,9.086,14.125,20.211,14.125,33.375
		c0,14.668-6.336,25.75-19,33.25V88c7.5,3.168,13.625,8.211,18.375,15.125c4.75,6.918,7.125,15.211,7.125,24.875
		c0,16.668-5.086,30-15.25,40c-10.168,9.668-26.918,14.5-50.25,14.5H0z M33.75,78H70c6.832,0,12.207-1.625,16.125-4.875
		C90.039,69.875,92,65.086,92,58.75c0-6.664-1.918-11.664-5.75-15c-3.836-3.332-9.25-5-16.25-5H33.75V78z M33.75,151.25H74.5
		c16,0,24-7.75,24-23.25c0-7.164-2.125-12.707-6.375-16.625c-4.25-3.914-10.043-5.875-17.375-5.875h-41V151.25z"/>
	<path fill="#FFF" d="M256.247,167.75c-11.668,12.336-26.5,18.5-44.5,18.5s-32.836-6.164-44.5-18.5c-11.668-12.332-17.5-29.5-17.5-51.5
		c0-21.664,6-38.75,18-51.25s26.664-18.75,44-18.75c17.332,0,32,6.25,44,18.75s18,29.586,18,51.25
		C273.747,138.25,267.911,155.418,256.247,167.75z M189.747,146.5c5.332,7,12.664,10.5,22,10.5c9.332,0,16.664-3.539,22-10.625
		c5.332-7.082,8-17.125,8-30.125s-2.711-23.039-8.125-30.125c-5.418-7.082-12.711-10.625-21.875-10.625
		c-9.168,0-16.461,3.5-21.875,10.5c-5.418,7-8.125,17.086-8.125,30.25C181.747,129.418,184.411,139.5,189.747,146.5z"/>
	<path fill="#FFF" d="M298.746,182.5V0h33.75v182.5H298.746z"/>
	<path fill="#FFF" d="M450.494,182.5v-12.75h-0.5c-0.836,1.168-2.043,2.668-3.625,4.5c-1.586,1.836-5.418,4.293-11.5,7.375
		c-6.086,3.082-12.711,4.625-19.875,4.625c-17.5,0-31.461-6.332-41.875-19c-10.418-12.664-15.625-29.664-15.625-51
		c0-21.5,5.664-38.539,17-51.125c11.332-12.582,24.664-18.875,40-18.875c7,0,13.289,1.375,18.875,4.125
		c5.582,2.75,9.375,5.461,11.375,8.125l3.25,4.25h0.5V0h32.5v182.5H450.494z M448.494,128.25V104c0-8-2.543-14.75-7.625-20.25
		c-5.086-5.5-12.043-8.25-20.875-8.25c-9.5,0-16.875,3.418-22.125,10.25c-5.25,6.836-7.875,17-7.875,30.5
		c0,13.336,2.625,23.461,7.875,30.375c5.25,6.918,12.625,10.375,22.125,10.375c8.832,0,15.789-2.789,20.875-8.375
		C445.951,143.043,448.494,136.25,448.494,128.25z"/>
</g>
</svg>
