<svg version="1.1" xmlns="http://www.w3.org/2000/svg" xmlns:xlink="http://www.w3.org/1999/xlink" x="0px" y="0px"
	 viewBox="0 0 280 250" enable-background="new 0 0 280 250" xml:space="preserve">
<path fill="#FFF" d="M0,182.5V7.5h74.25c15.5,0,27.957,4.543,37.375,13.625c9.414,9.086,14.125,20.211,14.125,33.375
	c0,14.668-6.336,25.75-19,33.25V88c7.5,3.168,13.625,8.211,18.375,15.125c4.75,6.918,7.125,15.211,7.125,24.875
	c0,16.668-5.086,30-15.25,40c-10.168,9.668-26.918,14.5-50.25,14.5H0z M33.75,78H70c6.832,0,12.207-1.625,16.125-4.875
	C90.039,69.875,92,65.086,92,58.75c0-6.664-1.918-11.664-5.75-15c-3.836-3.332-9.25-5-16.25-5H33.75V78z M33.75,151.25H74.5
	c16,0,24-7.75,24-23.25c0-7.164-2.125-12.707-6.375-16.625c-4.25-3.914-10.043-5.875-17.375-5.875h-41V151.25z"/>
<path fill="#FFF" d="M244.497,136.75l22.75,20c-13.5,19.668-31.75,29.5-54.75,29.5c-18.5,0-33.586-6.375-45.25-19.125
	c-11.668-12.75-17.5-29.707-17.5-50.875c0-21.164,5.789-38.125,17.375-50.875c11.582-12.75,26.207-19.125,43.875-19.125
	c17.664,0,32.208,6.375,43.625,19.125c11.414,12.75,17.125,29.711,17.125,50.875V126h-89c0.5,10.168,3.289,17.961,8.375,23.375
	c5.082,5.418,12.039,8.125,20.875,8.125c7.5,0,13.707-1.875,18.625-5.625C235.536,148.125,240.161,143.086,244.497,136.75z
	 M182.747,101.75h57.5c-0.836-8.5-3.75-15.125-8.75-19.875s-11.836-7.125-20.5-7.125c-8,0-14.543,2.586-19.625,7.75
	C186.286,87.668,183.411,94.086,182.747,101.75z"/>
</svg>
