<svg version="1.1" xmlns="http://www.w3.org/2000/svg" xmlns:xlink="http://www.w3.org/1999/xlink" x="0px" y="0px"
	 viewBox="0 0 889.725 250" enable-background="new 0 0 889.725 250" xml:space="preserve">
<g>
	<path fill="#FFF" d="M0,182.5V7.5h31.75L85,135h0.5L139,7.5h31.5v175h-25v-133H145l-56.75,133h-6L25.5,49.5H25v133H0z"/>
	<path fill="#FFF" d="M301.75,140.25L320,154c-5.168,9.336-12.336,17.043-21.5,23.125c-9.168,6.082-20.336,9.125-33.5,9.125
		c-18.335,0-33.25-6.375-44.75-19.125S203,137.418,203,116.25c0-21.164,5.707-38.125,17.125-50.875
		c11.414-12.75,25.958-19.125,43.625-19.125c17.664,0,32.082,6.293,43.25,18.875c11.164,12.586,16.75,29.625,16.75,51.125v7.25h-96
		c0.332,11.836,3.625,21.625,9.875,29.375S252.833,164.5,264.5,164.5c5.5,0,10.375-0.75,14.625-2.25s7.914-3.789,11-6.875
		c3.082-3.082,5.289-5.539,6.625-7.375C298.083,146.168,299.75,143.586,301.75,140.25z M228,104.5h71.5
		c-0.5-10.164-3.668-18.789-9.5-25.875C284.165,71.543,275.415,68,263.75,68c-11.168,0-19.835,3.793-26,11.375
		C231.582,86.961,228.332,95.336,228,104.5z"/>
	<path fill="#FFF" d="M440.499,182.5v-12.75h-0.5c-9.668,11-22.168,16.5-37.5,16.5c-17.5,0-31.461-6.332-41.875-19
		c-10.418-12.664-15.625-29.664-15.625-51c0-21.164,5.539-38.125,16.625-50.875c11.082-12.75,24.625-19.125,40.625-19.125
		c14.332,0,26.25,5.5,35.75,16.5h0.5V0h24.25v182.5H440.499z M438.499,135.25v-35.5c0-8.164-2.918-15.414-8.75-21.75
		c-5.836-6.332-13.668-9.5-23.5-9.5c-11.836,0-20.961,4.125-27.375,12.375c-6.418,8.25-9.625,20.043-9.625,35.375
		c0,15.336,3.164,27.168,9.5,35.5c6.332,8.336,15.5,12.5,27.5,12.5c9.5,0,17.25-2.875,23.25-8.625S438.499,143.086,438.499,135.25z"
		/>
	<path fill="#FFF" d="M501.497,25.75V0h26.25v25.75H501.497z M502.497,182.5V50h24.25v132.5H502.497z"/>
	<path fill="#FFF" d="M565.247,136V50h24.25v82.75c0,11.168,2.039,19.043,6.125,23.625c4.082,4.586,10.957,6.875,20.625,6.875
		c9.164,0,16.457-2.75,21.875-8.25c5.414-5.5,8.125-13.332,8.125-23.5V50h24.25v132.5h-23.5v-12.75h-0.5
		c-8.336,11-20.25,16.5-35.75,16.5c-14.668,0-25.918-4.289-33.75-12.875C569.161,164.793,565.247,152.336,565.247,136z"/>
	<path fill="#FFF" d="M709.245,182.5V50h22v12.75h0.5c3.164-4.832,7.789-8.789,13.875-11.875c6.082-3.082,12.539-4.625,19.375-4.625
		c7.832,0,14.707,1.793,20.625,5.375c5.914,3.586,10.457,8.043,13.625,13.375h0.5c3.5-5.164,8.5-9.582,15-13.25
		c6.5-3.664,13.75-5.5,21.75-5.5c14.664,0,26.25,4.168,34.75,12.5c8.5,8.336,12.75,19.5,12.75,33.5v90.25h-23v-84
		c0-19.832-8.586-29.75-25.75-29.75c-8.5,0-15.086,2.5-19.75,7.5c-4.668,5-7,11.836-7,20.5v85.75h-23v-84
		c0-19.832-8.586-29.75-25.75-29.75c-8.836,0-15.5,2.625-20,7.875s-6.75,11.961-6.75,20.125v85.75H709.245z"/>
</g>
</svg>
