<svg version="1.1" xmlns="http://www.w3.org/2000/svg" xmlns:xlink="http://www.w3.org/1999/xlink" x="0px" y="0px"
  viewBox="0 0 889.725 250" enable-background="new 0 0 889.725 250" xml:space="preserve">
<g>
	<path fill="#FFF" d="M0,182.5V7.5h57.25c10,0,19.414,1.75,28.25,5.25c8.832,3.5,16.832,8.668,24,15.5c7.164,6.836,12.875,15.961,17.125,27.375
		C130.875,67.043,133,80.086,133,94.75c0,16-2.168,29.918-6.5,41.75c-4.336,11.836-10.25,20.961-17.75,27.375
		C101.25,170.293,93.125,175,84.375,178s-18.293,4.5-28.625,4.5H0z M29.5,155.25h25.75c14.664,0,26.039-4.414,34.125-13.25
		c8.082-8.832,12.125-24.582,12.125-47.25c0-20.332-4.043-35.414-12.125-45.25c-8.086-9.832-18.961-14.75-32.625-14.75H29.5V155.25z
		"/>
	<path fill="#FFF" d="M248.5,138.5l20.5,16.75c-12.836,20.668-31.168,31-55,31c-18.336,0-33.293-6.375-44.875-19.125
		c-11.586-12.75-17.375-29.707-17.375-50.875c0-21.164,5.75-38.125,17.25-50.875s26.082-19.125,43.75-19.125
		c17.664,0,32.125,6.336,43.375,19c11.25,12.668,16.875,29.668,16.875,51v8.5h-92.5c0.332,11,3.375,19.793,9.125,26.375
		c5.75,6.586,13.707,9.875,23.875,9.875c4.832,0,9.164-0.664,13-2c3.832-1.332,7.207-3.332,10.125-6c2.914-2.664,5.125-5,6.625-7
		S246.5,141.5,248.5,138.5z M180.75,103.25h64.5c-0.5-9.332-3.5-16.957-9-22.875c-5.5-5.914-13.336-8.875-23.5-8.875
		c-9.5,0-17.086,3.168-22.75,9.5C184.332,87.336,181.25,94.75,180.75,103.25z"/>
	<path fill="#FFF" d="M300.497,182.5V50h26v12.75h0.5c3.164-4.832,7.707-8.789,13.625-11.875c5.914-3.082,12.289-4.625,19.125-4.625
		c7.5,0,14.25,1.711,20.25,5.125c6,3.418,10.582,7.793,13.75,13.125h0.5c3.332-5.164,8.164-9.5,14.5-13
		c6.332-3.5,13.332-5.25,21-5.25c15.164,0,27.207,4.168,36.125,12.5c8.914,8.336,13.375,19.418,13.375,33.25v90.5h-26.25v-84
		c0-17.332-8.168-26-24.5-26c-8,0-14.125,2.211-18.375,6.625c-4.25,4.418-6.375,10.293-6.375,17.625v85.75h-26.5v-84
		c0-8-2.043-14.332-6.125-19c-4.086-4.664-10.125-7-18.125-7c-8.168,0-14.336,2.25-18.5,6.75c-4.168,4.5-6.25,10.336-6.25,17.5
		v85.75H300.497z"/>
	<path fill="#FFF" d="M514.243,28.25V0h29.5v28.25H514.243z M514.743,182.5V50h28.5v132.5H514.743z"/>
</g>
</svg>
