<svg version="1.1" xmlns="http://www.w3.org/2000/svg" xmlns:xlink="http://www.w3.org/1999/xlink" x="0px" y="0px"
	 viewBox="0 0 889.725 250" enable-background="new 0 0 889.725 250" xml:space="preserve">
<g>
	<path fill="#FFF" d="M0,182.5V7.5h16.25v160H93.5v15H0z"/>
	<path fill="#FFF" d="M123.497,28.25V7.5h20.25v20.75H123.497z M125.497,182.5V50h16.25v132.5H125.497z"/>
	<path fill="#FFF" d="M188.744,205.5l15-6c5.832,18.664,17.75,28,35.75,28c11.332,0,20.039-3.418,26.125-10.25
		c6.082-6.836,9.125-16.086,9.125-27.75v-18h-0.5c-9.5,9.836-22.168,14.75-38,14.75c-17.5,0-31.461-6.332-41.875-19
		c-10.418-12.664-15.625-29.664-15.625-51c0-21,5.375-37.914,16.125-50.75c10.75-12.832,24.539-19.25,41.375-19.25
		c16.164,0,28.832,5.5,38,16.5h0.5V50h16.25v135c0,18.832-4.418,33.125-13.25,42.875c-8.836,9.75-21.418,14.625-37.75,14.625
		c-13.336,0-24.336-3.375-33-10.125C198.326,225.625,192.244,216.664,188.744,205.5z M274.744,142V95.25
		c0-8.5-3.293-16.289-9.875-23.375c-6.586-7.082-15.293-10.625-26.125-10.625c-14.168,0-25,4.875-32.5,14.625
		s-11.25,23.211-11.25,40.375c0,17.336,3.707,30.836,11.125,40.5c7.414,9.668,18.289,14.5,32.625,14.5
		c10.164,0,18.707-2.914,25.625-8.75C271.283,156.668,274.744,149.836,274.744,142z"/>
	<path fill="#FFF" d="M333.491,182.5V0h16.25v64.25h0.5c4.164-5.332,9.832-9.664,17-13c7.164-3.332,14.832-5,23-5c14,0,25.25,4.25,33.75,12.75
		s12.75,21,12.75,37.5v86h-16.25v-81c0-26.832-10.668-40.25-32-40.25c-11.336,0-20.625,3.336-27.875,10
		c-7.25,6.668-10.875,16-10.875,28v83.25H333.491z"/>
	<path fill="#FFF" d="M483.99,146.75V65h-18.5V50h19V17.5h15.75V50h32.5v15h-32.5v79.5c0,8,1.082,13.668,3.25,17c2.164,3.336,6.414,5,12.75,5
		h9.5v16h-10C494.572,182.5,483.99,170.586,483.99,146.75z"/>
</g>
</svg>
