<svg version="1.1" id="Layer_1" xmlns="http://www.w3.org/2000/svg" xmlns:xlink="http://www.w3.org/1999/xlink" x="0px" y="0px"
	 viewBox="0 0 1300 300" enable-background="new 0 0 1300 300" xml:space="preserve">
<g id="japaneese">
	<g id="Stroke-1">
		<path fill="#FFFFFF" d="M161.773,275.461l-15.455-20.908l10.454-7.727c29.648-21.916,46.791-41.711,59.168-68.324
			c15.391-33.095,22.56-76.38,22.56-136.222V29.281h26V42.28c0,63.766-7.939,110.535-24.984,147.185
			c-17.817,38.312-44.013,61.064-67.288,78.27L161.773,275.461z"/>
	</g>
	<g id="Stroke-3">
		<path fill="#FFFFFF" d="M269.393,265.279h-13v-26h13c18.702,0,32.515-4.762,42.228-14.557
			c21.43-21.611,21.108-66.377,20.805-102.443H139.5v-26h205.851c7.18,0,13,5.82,13,13c0,4.039,0.036,8.217,0.071,12.494
			c0.346,40.941,0.775,91.894-28.339,121.255C315.443,257.793,295.023,265.279,269.393,265.279z"/>
	</g>
	<g id="Stroke-5">
		<path fill="#FFFFFF" d="M464.347,269.279h-13v-26h13c50.157,0,83.27-25.816,102.216-47.473
			c16.568-18.941,26.489-39.262,30.646-53.527H410.5v-26h202c7.18,0,13,5.82,13,13c0,10.158-3.574,23.722-10.066,38.197
			c-7.193,16.043-17.326,31.758-29.303,45.449C563.641,238.633,524.256,269.279,464.347,269.279z"/>
	</g>
	<g id="Stroke-7">
		<rect x="440.5" y="49.78" fill="#FFFFFF" width="159" height="26"/>
	</g>
	<g id="Stroke-9">
		<rect x="656.5" y="95.78" fill="#FFFFFF" width="248" height="26"/>
	</g>
	<g id="Stroke-11">
		<path fill="#FFFFFF" d="M757.5,268.279h-13v-26h13c14.183,0,23.767-2.979,29.301-9.105c5.181-5.734,7.699-15.098,7.699-28.625
			V28.281h26v176.268c0,20.258-4.712,35.322-14.404,46.053C795.351,262.498,779.455,268.279,757.5,268.279z"/>
	</g>
	<g id="Stroke-13">
		<path fill="#FFFFFF" d="M674.872,245.072l-13.165-22.42l11.21-6.582c56.546-33.205,92.985-68.181,99.976-95.962l3.173-12.607
			l25.214,6.346l-3.172,12.607c-6.231,24.759-30.724,64.296-112.024,112.037L674.872,245.072z"/>
	</g>
	<g id="Stroke-15">
		<path fill="#FFFFFF" d="M943.046,181.6l-19.865-16.773l8.387-9.934c24.053-28.486,46.451-81.919,55.313-117.735l3.122-12.619
			l25.239,6.246l-3.123,12.618c-7.935,32.066-30.644,92.686-60.687,128.263L943.046,181.6z"/>
	</g>
	<g id="Stroke-17">
		<rect x="979.5" y="86.78" fill="#FFFFFF" width="181" height="26"/>
	</g>
	<g id="Stroke-19">
		<path fill="#FFFFFF" d="M973.78,274.393l-10.393-23.832l11.916-5.197c31.734-13.838,53.356-32.727,66.103-57.744
			c10.979-21.551,16.094-48.667,16.094-85.339v-13h26v13c0,61.449-11.62,129.333-97.804,166.916L973.78,274.393z"/>
	</g>
</g>
</svg>
