<svg version="1.1" id="Layer_1" xmlns="http://www.w3.org/2000/svg" xmlns:xlink="http://www.w3.org/1999/xlink" x="0px" y="0px"
	 viewBox="0 0 1300 300" enable-background="new 0 0 1300 300" xml:space="preserve">
<g id="roman" enable-background="new    ">
	<path fill="#222222" d="M32.959,275.125v-245h47.25v102.9h0.7l86.8-102.9h54.95l-91.7,108.15l99.05,136.85h-57.05l-73.85-100.8
		h-0.7l-18.2,24.149v76.65H32.959z"/>
	<path fill="#222222" d="M349.704,275.125v-17.85h-0.7c-0.47,0.699-1.05,1.574-1.75,2.625c-0.7,1.05-2.45,2.859-5.25,5.425
		c-2.8,2.57-5.95,4.899-9.45,7c-3.5,2.1-8.285,3.965-14.35,5.6c-6.07,1.63-12.6,2.45-19.6,2.45c-22.4,0-39.146-5.305-50.226-15.925
		c-11.085-10.615-16.625-23.625-16.625-39.025c0-16.1,4.78-28.35,14.351-36.75c9.564-8.399,25.779-15.399,48.649-21
		c21.229-5.13,34.53-9.215,39.9-12.25c5.364-3.029,8.05-7.35,8.05-12.95c0-5.6-2.625-10.265-7.875-14
		c-5.25-3.729-13.125-5.6-23.625-5.6c-12.37,0-21.235,2.745-26.6,8.225c-5.371,5.485-9.57,12.896-12.601,22.226l-37.8-15.75
		c4.43-15.63,13.064-28.405,25.9-38.325c12.829-9.915,29.629-14.875,50.399-14.875c22.63,0,41.18,5.95,55.65,17.85
		c14.465,11.9,21.7,30.336,21.7,55.301v117.6H349.704z M303.854,199.175c-11.671,2.8-19.311,6.125-22.926,9.976
		c-3.62,3.85-5.425,8.225-5.425,13.125c0,12.6,9.101,18.899,27.3,18.899c13.766,0,24.09-2.625,30.976-7.875
		c6.88-5.25,10.325-11.725,10.325-19.425v-32.2h-0.7c-0.936,1.87-1.925,3.325-2.976,4.375c-1.05,1.05-4.609,2.8-10.675,5.25
		C323.684,193.75,315.054,196.375,303.854,199.175z"/>
	<path fill="#222222" d="M426.349,275.125v-185.5h43.05v19.6h0.7c3.5-7,8.69-12.6,15.575-16.8c6.88-4.2,14.404-6.3,22.575-6.3
		c5.829,0,11.43,1.17,16.8,3.5l-7,44.1c-5.135-1.864-9.92-2.8-14.35-2.8c-21.235,0-31.851,14.12-31.851,42.351v101.85H426.349z"/>
	<path fill="#222222" d="M653.496,275.125v-17.85h-0.701c-0.471,0.699-1.049,1.574-1.75,2.625c-0.7,1.05-2.45,2.859-5.25,5.425
		c-2.8,2.57-5.95,4.899-9.45,7c-3.5,2.1-8.285,3.965-14.35,5.6c-6.07,1.63-12.6,2.45-19.6,2.45c-22.4,0-39.146-5.305-50.226-15.925
		c-11.085-10.615-16.625-23.625-16.625-39.025c0-16.1,4.78-28.35,14.351-36.75c9.564-8.399,25.779-15.399,48.649-21
		c21.229-5.13,34.53-9.215,39.9-12.25c5.364-3.029,8.05-7.35,8.05-12.95c0-5.6-2.625-10.265-7.875-14
		c-5.25-3.729-13.125-5.6-23.625-5.6c-12.37,0-21.235,2.745-26.6,8.225c-5.371,5.485-9.57,12.896-12.601,22.226l-37.8-15.75
		c4.43-15.63,13.064-28.405,25.9-38.325c12.829-9.915,29.629-14.875,50.399-14.875c22.63,0,41.18,5.95,55.65,17.85
		c14.465,11.9,21.699,30.336,21.699,55.301v117.6H653.496z M607.646,199.175c-11.671,2.8-19.311,6.125-22.926,9.976
		c-3.62,3.85-5.425,8.225-5.425,13.125c0,12.6,9.101,18.899,27.3,18.899c13.766,0,24.09-2.625,30.976-7.875
		c6.88-5.25,10.325-11.725,10.325-19.425v-32.2h-0.7c-0.936,1.87-1.925,3.325-2.976,4.375c-1.05,1.05-4.609,2.8-10.675,5.25
		C627.475,193.75,618.845,196.375,607.646,199.175z"/>
	<path fill="#222222" d="M866.99,254.475c-16.336,17.271-37.1,25.9-62.301,25.9c-25.199,0-45.971-8.63-62.299-25.9
		c-16.336-17.265-24.5-41.3-24.5-72.1c0-30.33,8.398-54.25,25.199-71.75s37.33-26.25,61.6-26.25c24.266,0,44.801,8.75,61.6,26.25
		c16.801,17.5,25.201,41.42,25.201,71.75C891.49,213.175,883.32,237.21,866.99,254.475z M773.891,224.725
		c7.465,9.801,17.729,14.7,30.799,14.7c13.064,0,23.33-4.954,30.801-14.875c7.465-9.915,11.199-23.975,11.199-42.175
		s-3.795-32.255-11.375-42.175c-7.584-9.915-17.795-14.875-30.625-14.875c-12.834,0-23.045,4.899-30.625,14.7
		c-7.584,9.8-11.375,23.92-11.375,42.35C762.689,200.811,766.42,214.925,773.891,224.725z"/>
	<path fill="#222222" d="M921.238,275.125v-255.5h45.5v146.65h0.699l67.551-76.65h57.049l-66.85,75.25l72.801,110.25h-50.4
		l-56.699-84.7h-0.701l-23.449,26.601v58.1H921.238z"/>
	<path fill="#222222" d="M1228.891,211.075l31.85,28c-18.9,27.535-44.449,41.3-76.65,41.3c-25.898,0-47.02-8.925-63.35-26.775
		c-16.334-17.85-24.5-41.59-24.5-71.225c0-29.63,8.105-53.375,24.326-71.225c16.215-17.851,36.689-26.775,61.424-26.775
		c24.73,0,45.09,8.925,61.076,26.775c15.979,17.85,23.975,41.595,23.975,71.225v13.65h-124.6
		c0.699,14.234,4.604,25.145,11.725,32.725c7.115,7.585,16.854,11.375,29.225,11.375c10.5,0,19.189-2.625,26.074-7.875
		C1216.346,227,1222.82,219.945,1228.891,211.075z M1142.441,162.075h80.5c-1.172-11.9-5.25-21.175-12.25-27.825
		s-16.57-9.975-28.701-9.975c-11.199,0-20.359,3.62-27.475,10.85C1147.395,142.36,1143.371,151.346,1142.441,162.075z"/>
</g>
</svg>
