<?xml version="1.0" encoding="UTF-8"?>
<svg width="144px" height="77px" viewBox="0 0 144 77" version="1.1" xmlns="http://www.w3.org/2000/svg" xmlns:xlink="http://www.w3.org/1999/xlink">
    <!-- Generator: Sketch 61 (89581) - https://sketch.com -->
    <title>Group 2</title>
    <desc>Created with Sketch.</desc>
    <g id="Page-1" stroke="none" stroke-width="1" fill="none" fill-rule="evenodd">
        <g id="front_14yearsmovie_01-copy-20" transform="translate(-194.000000, -7290.000000)" fill="#222222">
            <g id="Group-2" transform="translate(194.000000, 7290.000000)">
                <path d="M14.4422761,27.9578575 L19.9091293,13.745968 L19.9310865,13.6872774 L20.0965321,14.0821522 L25.9233826,27.9578575 L14.4422761,27.9578575 Z M22.4531104,0 C21.2449492,1.63458609 18.6356068,2.95975919 15.4140136,3.72994526 L15.2608232,4.2988327 L17.7144221,9.79670509 L4.18720305,44.6306356 L0,48.5623943 L0,49 L13.2872208,49 L13.2872208,48.5623943 L8.15942898,44.4859682 L13.2872208,31.0890551 L27.2255006,31.0890551 L32.8572888,44.6306356 L27.8745171,48.5623943 L27.8745171,49 L46,49 L46,48.5623943 L41.811265,44.6306356 L23.0352338,0 L22.4531104,0 Z" id="Fill-1"></path>
                <path d="M118.231703,45.8816919 C113.829971,45.8816919 110.942101,45.0116214 109.498166,44.3584277 L109.498166,4.19008759 C111.73527,4.11728263 114.117329,4.11728263 115.489808,4.11728263 C126.099593,4.11728263 134.689195,11.6587481 134.689195,24.7092929 C134.689195,37.0364025 127.831907,45.8816919 118.231703,45.8816919 L118.231703,45.8816919 Z M96,48.5641957 L96,49 L119.09837,49 C134.183895,49 144,38.4135441 144,24.274514 C144,9.19312113 131.657391,1 117.00571,1 L96,1 L96,1.4352916 L100.909584,5.3508652 L100.909584,44.6491348 L96,48.5641957 Z" id="Fill-3"></path>
                <path d="M65.2243768,44.8260578 C57.8497821,44.8260578 53.3973525,39.7216925 53.3973525,33.162913 C53.3973525,27.9152708 56.1703116,24.1251353 59.3841769,21.8656909 C65.4437974,28.0606092 69.2395143,32.5068288 75.1550916,40.7421533 C72.4538959,43.2948513 69.2395143,44.8260578 65.2243768,44.8260578 M64.2016191,2.84285935 C66.9038473,2.84285935 69.0949549,5.10230377 69.0949549,8.81925475 C69.0949549,12.5367211 66.9038473,14.8688347 65.0787849,16.3263413 C61.2825517,12.5367211 59.3098321,10.6416534 59.3098321,7.65242488 C59.3098321,5.02911921 61.2825517,2.84285935 64.2016191,2.84285935 M82.3840943,37.2452713 L84.5731367,33.4546204 C88.7927225,25.5960418 90.7029717,19.2057929 93.9596886,17.869917 L93.9596886,17.1282791 L81.3608203,17.1282791 L81.3608203,17.4926558 L86.6176197,21.7198371 C84.9381492,25.1461114 82.9669785,29.3001082 80.4113748,33.7463279 L80.1929868,34.1838891 C75.1550916,26.9669639 71.3583421,22.8129671 66.6854594,17.930217 C70.9195011,16.0346338 75.5195878,13.1922899 75.5195878,8.2363552 C75.5195878,2.98768232 69.9700556,0 64.3487599,0 C57.2658654,0 52.3017987,4.73741174 52.3017987,9.76653095 C52.3017987,13.2659898 53.9074407,16.3990105 57.6308779,20.1169922 C50.9883733,22.8871824 45,28.2801629 45,35.7135495 C45,43.5860434 52.0839271,50 62.8881936,50 C69.0949549,50 73.6222456,47.5215173 77.3456828,43.7308664 C80.4857196,47.5215173 83.6975198,49.5629542 88.00539,49.5629542 C88.3611094,49.5629542 88.7013403,49.517085 89.0477666,49.4877081 L95,44.7513271 L95,44.3096428 C94.9065527,44.3106736 94.8146542,44.3147967 94.7227557,44.3147967 C88.8804907,44.3147967 85.2303657,41.0343761 82.3840943,37.2452713" id="Fill-5"></path>
                <path d="M6.66622833,66.4329547 C9.28280534,66.4329547 10.692887,65.3253094 10.692887,63.1095101 L10.692887,63.0093236 C10.692887,60.5677233 9.1538155,59.7621631 6.66622833,59.7621631 L3.23012552,59.7621631 L3.23012552,66.4329547 L6.66622833,66.4329547 Z M1,58 L6.51237298,58 C10.0261805,58 12.9235306,59.4092219 12.9235306,63.0093236 L12.9235306,63.1095101 C12.9235306,66.0805221 10.8980275,67.5416172 8.38402072,68.0181387 L14,76 L11.5129309,76 L6.05132497,68.1691812 L3.23012552,68.1691812 L3.23012552,76 L1,76 L1,58 Z" id="Fill-7"></path>
                <polygon id="Fill-9" points="16 58 26.5448382 58 26.5448382 59.7870321 18.2002043 59.7870321 18.2002043 65.9033197 24.9269958 65.9033197 24.9269958 67.6913688 18.2002043 67.6913688 18.2002043 74.2119508 27 74.2119508 27 76 16 76"></polygon>
                <path d="M29,71.1161425 L31.2614506,71.1161425 C31.5578649,73.3191853 32.4732139,75.1855139 36.3505303,75.1855139 C38.8268133,75.1855139 40.7385494,73.7868148 40.7385494,71.685886 C40.7385494,69.5860045 39.7427062,68.7046826 36.0807661,68.1349392 C32.0419176,67.5384891 29.6461287,66.3204531 29.6461287,63.0292423 C29.6461287,60.176336 32.2034497,58 35.8381959,58 C39.6883182,58 42.0846509,59.8134388 42.4621033,63.1067442 L40.361641,63.1067442 C39.9042384,60.7738335 38.5048366,59.8134388 35.8381959,59.8134388 C33.2003807,59.8134388 31.8265413,61.0838409 31.8265413,62.8203015 C31.8265413,64.635835 32.5265141,65.5684756 36.4582184,66.138219 C40.7385494,66.7865116 43,68.030207 43,71.5303586 C43,74.6403825 40.1729148,77 36.3505303,77 C31.2081504,77 29.3508022,74.2785326 29,71.1161425" id="Fill-11"></path>
                <path d="M60.6886635,67.5384891 L60.6886635,67.3316429 C60.6886635,63.1837224 58.2751426,59.8134388 54.0389027,59.8134388 C49.7762089,59.8134388 47.3113365,62.9758289 47.3113365,67.3829617 L47.3113365,67.5908552 C47.3113365,72.0744426 50.2637888,75.1336714 54.0892168,75.1336714 C58.1724396,75.1336714 60.6886635,72.0231238 60.6886635,67.5384891 M45,67.615991 L45,67.4086211 C45,62.1463495 48.6464757,58 54.0389027,58 C59.4302922,58 63,62.1463495 63,67.3573023 L63,67.5641485 C63,72.801808 59.4302922,77 54.0892168,77 C48.6724108,77 45,72.801808 45,67.615991" id="Fill-13"></path>
                <path d="M65,69.9143646 L65,58 L67.3069977,58 L67.3069977,69.6524639 C67.3069977,73.5883978 68.7125148,75.1104972 71.8668937,75.1104972 C74.8900409,75.1104972 76.6930023,73.9038451 76.6930023,69.3105084 L76.6930023,58 L79,58 L79,69.6254255 C79,74.1917239 76.6930023,77 71.814401,77 C67.4655469,77 65,74.480663 65,69.9143646" id="Fill-15"></path>
                <path d="M88.6673308,66.4329547 C91.2826633,66.4329547 92.6926326,65.3253094 92.6926326,63.1095101 L92.6926326,63.0093236 C92.6926326,60.5677233 91.1536837,59.7621631 88.6673308,59.7621631 L85.2315018,59.7621631 L85.2315018,66.4329547 L88.6673308,66.4329547 Z M83,58 L88.5129697,58 C92.0259792,58 94.9236164,59.4092219 94.9236164,63.0093236 L94.9236164,63.1095101 C94.9236164,66.0805221 92.8972387,67.5416172 90.3844683,68.0181387 L96,76 L93.5126111,76 L88.0519584,68.1691812 L85.2315018,68.1691812 L85.2315018,76 L83,76 L83,58 Z" id="Fill-17"></path>
                <path d="M98,67.6422977 L98,67.4355091 C98,61.9550914 101.588804,58 106.493537,58 C110.259535,58 113.44442,60.0428198 113.823828,64.0501305 L111.649507,64.0501305 C111.195034,61.232376 109.602847,59.783812 106.519069,59.783812 C102.777072,59.783812 100.274918,62.7571802 100.274918,67.4099217 L100.274918,67.6167102 C100.274918,72.321671 102.599879,75.1639687 106.493537,75.1639687 C109.450675,75.1639687 111.499378,73.6391645 111.952829,70.6417755 L114,70.6417755 C113.369355,74.9060052 110.487282,77 106.441962,77 C101.209906,77 98,73.3295039 98,67.6422977" id="Fill-19"></path>
                <polygon id="Fill-22" points="117 58 127.544838 58 127.544838 59.7870321 119.200204 59.7870321 119.200204 65.9033197 125.926485 65.9033197 125.926485 67.6913688 119.200204 67.6913688 119.200204 74.2119508 128 74.2119508 128 76 117 76"></polygon>
                <path d="M130,71.1161425 L132.260819,71.1161425 C132.557766,73.3191853 133.473079,75.1855139 137.350245,75.1855139 C139.826975,75.1855139 141.73755,73.7868148 141.73755,71.685886 C141.73755,69.5860045 140.741745,68.7046826 137.081579,68.1349392 C133.041799,67.5384891 130.646104,66.3204531 130.646104,63.0292423 C130.646104,60.176336 133.203325,58 136.837386,58 C140.688447,58 143.08523,59.8134388 143.460493,63.1067442 L141.3612,63.1067442 C140.903815,60.7738335 139.503924,59.8134388 136.837386,59.8134388 C134.200218,59.8134388 132.826432,61.0838409 132.826432,62.8203015 C132.826432,64.635835 133.526377,65.5684756 137.456841,66.138219 C141.73755,66.7865116 144,68.030207 144,71.5303586 C144,74.6403825 141.173025,77 137.350245,77 C132.208608,77 130.350789,74.2785326 130,71.1161425" id="Fill-24"></path>
            </g>
        </g>
    </g>
</svg>