<?xml version="1.0" encoding="UTF-8"?>
<svg width="220px" height="91px" viewBox="0 0 220 91" version="1.1" xmlns="http://www.w3.org/2000/svg" xmlns:xlink="http://www.w3.org/1999/xlink">
    <!-- Generator: Sketch 61 (89581) - https://sketch.com -->
    <title>Group 67</title>
    <desc>Created with Sketch.</desc>
    <g id="Page-1" stroke="none" stroke-width="1" fill="none" fill-rule="evenodd">
        <g id="front_14yearsmovie_01-copy-20" transform="translate(-968.000000, -7198.000000)" fill="#1C1C1C">
            <g id="Group-67" transform="translate(968.000000, 7198.000000)">
                <path d="M6.4078204,41.4107057 C6.4078204,40.1202437 5.63916146,39.4834104 4.10324115,39.500206 L3.42123104,39.500206 L3.42123104,43.888057 C4.41070473,43.662716 5.08991971,43.4359754 5.45608088,43.2064355 C6.09057389,42.8131385 6.4078204,42.2140954 6.4078204,41.4107057 M4.9809099,49.6223554 C5.56369313,49.6223554 6.04026167,49.3186349 6.40921796,48.7069951 C6.7362474,48.1793333 6.89976212,47.6026843 6.89976212,46.9756485 C6.89976212,46.3010251 6.71947666,45.7341736 6.35890574,45.2778931 C5.97038359,44.789421 5.44769551,44.5444851 4.79223907,44.5444851 C4.33244127,44.5444851 3.8754386,44.6578554 3.42123104,44.8817968 L3.42123104,46.8692763 C3.4156408,47.7874359 3.46455546,48.4032746 3.56797502,48.7153929 C3.77481415,49.3200346 4.24579245,49.6223554 4.9809099,49.6223554 M0,50.0814352 C0,49.8630923 0.120190306,49.7259283 0.360570919,49.6713426 C0.765863812,49.5733682 0.982485876,49.5145836 1.00903955,49.497788 C1.25081772,49.3606239 1.37100803,49.0834965 1.37100803,48.6664057 L1.37100803,40.4967451 C1.37100803,40.0796543 1.25081772,39.8025269 1.00903955,39.6653628 C0.982485876,39.6485672 0.765863812,39.5911822 0.360570919,39.4918082 C0.120190306,39.4372225 0,39.2986588 0,39.0733178 C0,38.8101867 0.233392804,38.6772215 0.697383289,38.6772215 C1.0691347,38.6772215 1.62955694,38.6730226 2.37585489,38.6660245 C3.12215284,38.6576267 3.68117752,38.6534278 4.05292893,38.6534278 C5.42533452,38.6534278 6.3966399,38.7570007 6.96544752,38.965546 C7.97169194,39.33225 8.47481415,40.0852528 8.47481415,41.2245545 C8.47481415,42.3652558 7.81656259,43.2470249 6.49726435,43.8712614 C8.27077015,44.2701569 9.15682426,45.308685 9.15682426,46.9840463 C9.15682426,48.4298677 8.57404103,49.4222078 7.40847458,49.9596671 C6.61046685,50.3333692 5.3931906,50.5181208 3.75804341,50.5181208 L2.90413321,50.5181208 L2.10053524,50.5181208 L0.894439489,50.5181208 C0.297680642,50.4747322 0,50.3291703 0,50.0814352" id="Fill-1"></path>
                <path d="M99.1634315,43.9051325 C99.7210586,43.7063846 100.250734,43.6084102 100.753857,43.6084102 C101.694416,43.6084102 102.450497,43.9093314 103.024894,44.5125735 C103.597895,45.1144159 103.884395,45.8912124 103.884395,46.8457625 C103.884395,47.9458744 103.507053,48.8570358 102.75237,49.577847 C101.997687,50.2972587 101.068308,50.6583641 99.9642343,50.6583641 C99.2305144,50.6583641 98.5806482,50.4722128 98.0104431,50.0985107 C97.3591793,49.666024 97.034945,49.0991724 97.034945,48.3965564 C97.034945,48.0144564 97.1299792,47.6869422 97.3214451,47.412614 C97.5352721,47.1004958 97.8245674,46.9423372 98.1921261,46.9423372 C98.4814213,46.9423372 98.7301873,47.0263152 98.938424,47.1900723 C99.1620339,47.3776232 99.2752364,47.6127616 99.2752364,47.8968872 C99.2752364,48.3839597 99.0222777,48.6988772 98.5205531,48.8430395 C98.552697,49.1327636 98.7162117,49.3790991 99.0124948,49.5806463 C99.2850193,49.761199 99.5715195,49.8521752 99.8733928,49.8521752 C100.55121,49.8521752 101.068308,49.4854712 101.424686,48.7506637 C101.708391,48.1698158 101.850943,47.5035902 101.850943,46.7463885 C101.850943,46.1599421 101.708391,45.6812674 101.424686,45.3089649 C101.11303,44.9030712 100.672798,44.7001244 100.102593,44.7001244 C99.6274219,44.7001244 99.1941778,44.8680804 98.8070532,45.2011931 C98.4185311,45.5357055 98.1641748,45.7036616 98.0439845,45.7036616 C97.7812429,45.7036616 97.6498721,45.5664975 97.6498721,45.2921693 C97.6498721,45.1494067 97.758882,44.7113214 97.9782991,43.9779135 L98.5932263,41.8980581 C98.7958727,41.215037 98.9761582,40.7727528 99.1340827,40.5768041 C99.3968243,40.2422917 99.8244781,40.0743357 100.415647,40.0743357 C100.622486,40.0743357 100.924359,40.1233229 101.321267,40.2226968 C101.718174,40.3206712 102.014457,40.371058 102.211514,40.371058 C102.52317,40.371058 102.794297,40.245091 103.023497,39.9931569 C103.254095,39.7412229 103.417609,39.6152559 103.515439,39.6152559 C103.78377,39.6152559 103.917936,39.7496207 103.917936,40.0169507 C103.917936,40.4116474 103.82989,40.8343367 103.655195,41.2822194 C103.437175,41.8406731 103.170241,42.1205998 102.852994,42.1205998 C102.618204,42.1205998 102.274404,42.059016 101.820196,41.9358482 C101.367386,41.8126805 101.020791,41.7510966 100.779013,41.7510966 C100.440803,41.7510966 100.097003,41.8112808 99.7462147,41.933049 L99.1634315,43.9051325 Z" id="Fill-3"></path>
                <path d="M109.5216,49.6712026 C110.101588,49.6712026 110.565578,49.3954748 110.917764,48.8426196 C111.22942,48.359746 111.38455,47.8096901 111.38455,47.1910521 C111.38455,46.6703884 111.272745,46.2071097 111.049135,45.801216 C110.778008,45.308545 110.404859,45.0622095 109.924098,45.0622095 C109.754993,45.0622095 109.517407,45.1167952 109.214136,45.2273663 C108.910865,45.3365377 108.68446,45.3911234 108.536319,45.3911234 C108.406346,45.3911234 108.34066,45.308545 108.34066,45.1447879 C108.34066,44.8480656 108.62157,44.5891334 109.184787,44.3637924 C109.650175,44.1832397 110.063854,44.0922635 110.424425,44.0922635 C111.267154,44.0922635 111.937984,44.3455972 112.436913,44.8536641 C112.937241,45.3589318 113.188802,46.0377541 113.188802,46.885932 C113.188802,47.9272593 112.851989,48.8062291 112.178365,49.5242411 C111.490764,50.2520505 110.631264,50.6173548 109.604056,50.6173548 C108.421719,50.6173548 107.472774,50.0910926 106.757223,49.0399679 C106.12832,48.107812 105.813869,47.023096 105.813869,45.78582 C105.813869,44.3064075 106.203788,43.0159454 106.986423,41.9144338 C107.861296,40.6827564 109.004502,40.0669176 110.416039,40.0669176 C111.018388,40.0669176 111.560642,40.2152788 112.046994,40.5106014 C112.617199,40.8549113 112.900904,41.3069929 112.900904,41.8654467 C112.900904,42.6940297 112.481635,43.1069216 111.637508,43.1069216 C111.392935,43.1069216 111.174915,43.0075476 110.986244,42.8074 C110.797574,42.6072524 110.702539,42.3819114 110.702539,42.1285778 C110.702539,41.8444522 110.82273,41.5785218 111.064508,41.3321863 C110.854874,41.0970479 110.59912,40.9794787 110.293054,40.9794787 C109.374856,40.9794787 108.695641,41.6093137 108.258204,42.8689839 C107.946548,43.750753 107.790021,44.7724854 107.790021,45.9327816 C107.790021,46.7935562 107.889248,47.5521575 108.086304,48.2085856 C108.38678,49.1841301 108.864746,49.6712026 109.5216,49.6712026" id="Fill-5"></path>
                <path d="M174.582569,0.0238235487 C149.542456,0.0238235487 129.245668,20.3507006 129.245668,45.4279338 C129.245668,70.5037673 149.542456,90.832044 174.582569,90.832044 C199.622682,90.832044 219.919471,70.5037673 219.919471,45.4279338 C219.919471,20.3507006 199.622682,0.0238235487 174.582569,0.0238235487 M174.582569,0.582277309 C199.273292,0.582277309 219.360446,20.700609 219.360446,45.4279338 C219.360446,70.1538589 199.273292,90.2721906 174.582569,90.2721906 C149.891847,90.2721906 129.804692,70.1538589 129.804692,45.4279338 C129.804692,20.700609 149.891847,0.582277309 174.582569,0.582277309" id="Fill-7"></path>
                <path d="M174.582569,4.84738042 C152.203414,4.84738042 134.061665,23.0160227 134.061665,45.4283537 C134.061665,67.839285 152.203414,86.0065276 174.582569,86.0065276 C196.961725,86.0065276 215.103473,67.839285 215.103473,45.4283537 C215.103473,23.0160227 196.961725,4.84738042 174.582569,4.84738042 M174.582569,5.40583418 C196.617924,5.40583418 214.544448,23.3617321 214.544448,45.4283537 C214.544448,67.4949752 196.617924,85.4466742 174.582569,85.4466742 C152.547214,85.4466742 134.619292,67.4949752 134.619292,45.4283537 C134.619292,23.3617321 152.547214,5.40583418 174.582569,5.40583418" id="Fill-10"></path>
                <path d="M188.786128,27.2100244 L160.44218,27.2100244 L152.34331,35.3181012 L152.34331,39.3728394 L196.882203,39.3728394 L196.882203,35.3195008 L188.786128,27.2100244 Z M188.554133,27.7684782 L196.323179,35.55184 L196.323179,38.812986 L152.902334,38.812986 L152.902334,35.5504403 L160.672777,27.7684782 L188.554133,27.7684782 Z" id="Fill-12"></path>
                <polygon id="Fill-14" points="191.223756 41.2459689 190.828246 40.8498726 192.85471 38.8190044 193.25022 39.2151007"></polygon>
                <polygon id="Fill-16" points="187.380461 41.2459689 186.984951 40.8498726 189.014211 38.8190044 189.40972 39.2151007"></polygon>
                <polygon id="Fill-18" points="172.009938 41.2459689 171.614428 40.8498726 173.64229 38.8190044 174.0378 39.2151007"></polygon>
                <polygon id="Fill-20" points="156.638156 41.2459689 156.242646 40.8498726 158.270508 38.8190044 158.666018 39.2151007"></polygon>
                <polygon id="Fill-22" points="152.796259 41.2459689 152.400749 40.8498726 154.427214 38.8190044 154.822724 39.2151007"></polygon>
                <polygon id="Fill-24" points="160.480054 41.2459689 160.084544 40.8498726 162.112406 38.8190044 162.507916 39.2151007"></polygon>
                <polygon id="Fill-26" points="164.323348 41.2459689 163.927838 40.8498726 165.9557 38.8190044 166.35121 39.2151007"></polygon>
                <polygon id="Fill-28" points="168.166643 41.2459689 167.771133 40.8498726 169.798995 38.8190044 170.194505 39.2151007"></polygon>
                <polygon id="Fill-30" points="175.851974 41.2459689 175.456464 40.8498726 177.484326 38.8190044 177.879836 39.2151007"></polygon>
                <polygon id="Fill-32" points="179.695269 41.2459689 179.299759 40.8498726 181.327621 38.8190044 181.723131 39.2151007"></polygon>
                <polygon id="Fill-34" points="183.538564 41.2459689 183.143054 40.8498726 185.170916 38.8190044 185.566426 39.2151007"></polygon>
                <path d="M168.541748,36.3329754 L172.589087,36.3329754 L172.589087,30.2487687 L168.541748,30.2487687 L168.541748,36.3329754 Z M169.099376,35.7717224 L172.028665,35.7717224 L172.028665,30.8086221 L169.099376,30.8086221 L169.099376,35.7717224 Z" id="Fill-36"></path>
                <path d="M176.639221,36.3329754 L180.68656,36.3329754 L180.68656,30.2487687 L176.639221,30.2487687 L176.639221,36.3329754 Z M177.19545,35.7717224 L180.126137,35.7717224 L180.126137,30.8086221 L177.19545,30.8086221 L177.19545,35.7717224 Z" id="Fill-38"></path>
                <path d="M161.454573,32.7361973 C161.025522,32.7361973 160.625819,32.9041533 160.326741,33.2092734 C160.031855,33.5115942 159.873931,33.9104898 159.882316,34.3345787 L159.882316,36.334655 L159.882316,36.8945084 L160.441341,36.8945084 L162.466408,36.8945084 L163.024035,36.8945084 L163.024035,36.334655 L163.024035,34.321982 C163.033818,33.9118894 162.877291,33.5129939 162.582406,33.210673 C162.28193,32.9041533 161.883625,32.7361973 161.454573,32.7361973 M161.454573,33.2960507 C162.019188,33.2960507 162.477588,33.7565301 162.466408,34.321982 L162.466408,36.334655 L160.441341,36.334655 L160.441341,34.321982 C160.431558,33.7565301 160.888561,33.2960507 161.454573,33.2960507" id="Fill-39"></path>
                <path d="M187.773455,32.7361973 C187.344404,32.7361973 186.944701,32.9041533 186.647021,33.210673 C186.350737,33.5129939 186.194211,33.9118894 186.203993,34.3345787 L186.202596,36.334655 L186.202596,36.8945084 L186.761621,36.8945084 L188.786687,36.8945084 L189.345712,36.8945084 L189.345712,36.334655 L189.345712,34.321982 C189.354098,33.9118894 189.197571,33.5129939 188.901288,33.210673 C188.603607,32.9041533 188.202507,32.7361973 187.773455,32.7361973 M187.773455,33.2960507 C188.339468,33.2960507 188.797868,33.7565301 188.786687,34.321982 L188.786687,36.334655 L186.761621,36.334655 L186.761621,34.321982 C186.75044,33.7565301 187.20884,33.2960507 187.773455,33.2960507" id="Fill-40"></path>
                <polygon id="Fill-41" points="158.416554 54.2965714 158.021044 53.9004751 156.732492 55.1909372 155.44394 53.9004751 155.04843 54.2965714 156.336982 55.5870334 155.04843 56.8774955 155.44394 57.2735918 156.732492 55.9831297 158.021044 57.2735918 158.416554 56.8774955 157.128002 55.5870334"></polygon>
                <path d="M152.342611,67.7575464 L196.8843,67.7575464 L196.8843,43.4291172 L152.342611,43.4291172 L152.342611,67.7575464 Z M152.901635,67.1962934 L196.325275,67.1962934 L196.325275,43.9875709 L152.901635,43.9875709 L152.901635,67.1962934 Z" id="Fill-42"></path>
                <path d="M168.733214,62.4921252 L171.616384,62.4921252 L171.616384,58.3618068 L168.733214,58.3618068 L168.733214,62.4921252 Z M161.560928,62.4921252 L164.446893,62.4921252 L164.446893,58.3618068 L161.560928,58.3618068 L161.560928,62.4921252 Z M164.446893,49.0262515 L164.446893,53.136975 L161.560928,53.136975 L161.560928,50.299918 C162.036099,50.0157924 163.14157,49.4083514 164.446893,49.0262515 L164.446893,49.0262515 Z M168.17419,48.8722918 L168.17419,53.136975 L165.007315,53.136975 L165.007315,48.8722918 C165.521618,48.7547226 166.056884,48.6819417 166.589355,48.6819417 C167.121826,48.6819417 167.657092,48.7547226 168.17419,48.8722918 L168.17419,48.8722918 Z M168.733214,57.8019534 L171.616384,57.8019534 L171.616384,53.6982281 L168.733214,53.6982281 L168.733214,57.8019534 Z M161.560928,57.8005538 L164.446893,57.8005538 L164.446893,53.6968284 L161.560928,53.6968284 L161.560928,57.8005538 Z M165.007315,62.4921252 L168.17419,62.4921252 L168.17419,58.3618068 L165.007315,58.3618068 L165.007315,62.4921252 Z M165.007315,57.8019534 L168.17419,57.8019534 L168.17419,53.6982281 L165.007315,53.6982281 L165.007315,57.8019534 Z M171.616384,53.136975 L168.733214,53.136975 L168.733214,49.0262515 C170.037139,49.4111507 171.144008,50.0157924 171.616384,50.299918 L171.616384,53.136975 Z M166.589355,48.1206886 C163.794231,48.1206886 161.003301,49.9877997 161.003301,49.9877997 L161.003301,63.0519786 L172.176806,63.0519786 L172.176806,49.9877997 C172.176806,49.9877997 169.384478,48.1206886 166.589355,48.1206886 L166.589355,48.1206886 Z" id="Fill-43"></path>
                <path d="M184.77862,62.4921252 L187.663188,62.4921252 L187.663188,58.3618068 L184.77862,58.3618068 L184.77862,62.4921252 Z M177.607731,62.4921252 L180.493696,62.4921252 L180.493696,58.3618068 L177.607731,58.3618068 L177.607731,62.4921252 Z M180.495094,49.0262515 L180.495094,53.136975 L177.607731,53.136975 L177.607731,50.299918 C178.082902,50.0157924 179.188373,49.4083514 180.495094,49.0262515 L180.495094,49.0262515 Z M184.219596,48.8722918 L184.219596,53.136975 L181.054118,53.136975 L181.054118,48.8722918 C181.568421,48.7547226 182.103687,48.6819417 182.636158,48.6819417 C183.168629,48.6819417 183.705293,48.7547226 184.219596,48.8722918 L184.219596,48.8722918 Z M184.77862,57.8019534 L187.663188,57.8019534 L187.663188,53.6982281 L184.77862,53.6982281 L184.77862,57.8019534 Z M177.609129,57.8005538 L180.495094,57.8005538 L180.495094,53.6968284 L177.609129,53.6968284 L177.609129,57.8005538 Z M181.054118,62.4921252 L184.219596,62.4921252 L184.219596,58.3618068 L181.054118,58.3618068 L181.054118,62.4921252 Z M181.054118,57.8019534 L184.219596,57.8019534 L184.219596,53.6982281 L181.054118,53.6982281 L181.054118,57.8019534 Z M187.664585,53.136975 L184.77862,53.136975 L184.77862,49.0262515 C186.083943,49.4111507 187.189414,50.0157924 187.664585,50.299918 L187.664585,53.136975 Z M182.636158,48.1206886 C179.839637,48.1206886 177.050104,49.9877997 177.050104,49.9877997 L177.050104,63.0519786 L188.22361,63.0519786 L188.22361,49.9877997 C188.22361,49.9877997 185.431282,48.1206886 182.636158,48.1206886 L182.636158,48.1206886 Z" id="Fill-44"></path>
                <path d="M179.910773,24.0814237 L174.614014,20.2520265 L169.315858,24.0814237 L162.174318,24.0814237 L174.612617,15.0859793 L187.053711,24.0814237 L179.910773,24.0814237 Z M170.27179,24.0814237 L174.614014,20.9420458 L178.954841,24.0814237 L170.27179,24.0814237 Z M174.612617,14.39596 L160.444136,24.6412771 L188.783892,24.6412771 L174.612617,14.39596 Z" id="Fill-45"></path>
                <polygon id="Fill-46" points="176.595757 19.7403205 174.612617 18.1951251 172.629477 19.7403205 172.285676 19.2994359 174.612617 17.4855109 176.939557 19.2994359"></polygon>
                <polygon id="Fill-47" points="194.160731 54.2965714 193.765222 53.9004751 192.47667 55.1909372 191.188118 53.9004751 190.792608 54.2965714 192.08116 55.5870334 190.792608 56.8774955 191.188118 57.2735918 192.47667 55.9831297 193.765222 57.2735918 194.160731 56.8774955 192.87218 55.5870334"></polygon>
                <polygon id="Fill-48" points="196.882203 39.0167726 196.500669 39.0167726 194.669863 40.8502925 195.065373 41.2463888 196.882203 39.4268652"></polygon>
                <polygon id="Fill-49" points="54.6339013 45.8118532 54.2383913 45.415757 56.5024413 43.1469511 56.8979512 43.5430474"></polygon>
                <polygon id="Fill-50" points="50.5408623 45.8118532 50.1453524 45.415757 52.4121974 43.1469511 52.8077074 43.5430474"></polygon>
                <polygon id="Fill-51" points="21.8989533 45.8118532 21.5034434 45.415757 23.7688909 43.1469511 24.1644008 43.5430474"></polygon>
                <polygon id="Fill-52" points="17.8073119 45.8118532 17.411802 45.415757 19.6758519 43.1469511 20.0713619 43.5430474"></polygon>
                <polygon id="Fill-53" points="25.9907345 45.8118532 25.5952245 45.415757 27.860672 43.1469511 28.256182 43.5430474"></polygon>
                <polygon id="Fill-54" points="30.0823759 45.8118532 29.6868659 45.415757 31.9523134 43.1469511 32.3478234 43.5430474"></polygon>
                <polygon id="Fill-55" points="34.174157 45.8118532 33.778647 45.415757 36.0440946 43.1469511 36.4396045 43.5430474"></polygon>
                <polygon id="Fill-56" points="38.2657984 45.8118532 37.8702884 45.415757 40.135736 43.1469511 40.5312459 43.5430474"></polygon>
                <polygon id="Fill-57" points="42.3574398 45.8118532 41.9619298 45.415757 44.2273773 43.1469511 44.6228873 43.5430474"></polygon>
                <polygon id="Fill-58" points="46.4504787 45.8118532 46.0549688 45.415757 48.3204163 43.1469511 48.7159263 43.5430474"></polygon>
                <polygon id="Fill-59" points="79.1840291 45.8118532 78.7885192 45.415757 81.0539667 43.1469511 81.4494767 43.5430474"></polygon>
                <polygon id="Fill-60" points="62.8173238 45.8118532 62.4218139 45.415757 64.6872614 43.1469511 65.0827713 43.5430474"></polygon>
                <polygon id="Fill-61" points="58.7255427 45.8118532 58.3300327 45.415757 60.5940827 43.1469511 60.9895926 43.5430474"></polygon>
                <polygon id="Fill-62" points="66.9089652 45.8118532 66.5134552 45.415757 68.7789028 43.1469511 69.1744127 43.5430474"></polygon>
                <polygon id="Fill-63" points="71.0006066 45.8118532 70.6050966 45.415757 72.8705442 43.1469511 73.2660541 43.5430474"></polygon>
                <polygon id="Fill-64" points="75.0923877 45.8118532 74.6968778 45.415757 76.9623253 43.1469511 77.3578353 43.5430474"></polygon>
                <polygon id="Fill-65" points="83.2770681 45.8118532 82.8815581 45.415757 85.1470056 43.1469511 85.5425156 43.5430474"></polygon>
                <polygon id="Fill-66" points="87.3688492 45.8118532 86.9733393 45.415757 89.2387868 43.1469511 89.6342968 43.5430474"></polygon>
            </g>
        </g>
    </g>
</svg>