<?xml version="1.0" encoding="UTF-8"?>
<svg width="177px" height="52px" viewBox="0 0 177 52" version="1.1" xmlns="http://www.w3.org/2000/svg" xmlns:xlink="http://www.w3.org/1999/xlink">
    <!-- Generator: Sketch 61 (89581) - https://sketch.com -->
    <title>Group 34</title>
    <desc>Created with Sketch.</desc>
    <g id="Page-1" stroke="none" stroke-width="1" fill="none" fill-rule="evenodd">
        <g id="front_14yearsmovie_01-copy-20" transform="translate(-529.000000, -7448.000000)" fill="#1C1C1C">
            <g id="Group-34" transform="translate(529.000000, 7448.000000)">
                <path d="M52.0603086,21.5286348 C52.7945302,21.7167322 53.4004208,21.7808094 54.9950912,21.7808094 C58.8870968,21.7808094 60.3218794,19.711737 60.3218794,16.0758744 L60.3218794,2.54112291 L45,2.54112291 L45,0.15993266 L63,0.15993266 L63,16.6401669 C63,20.9023321 60.9256662,24.1599327 55.0582048,24.1599327 C53.9431978,24.1599327 52.9228612,24.0979225 52.0603086,23.8788199 L52.0603086,21.5286348 Z" id="Fill-1"></path>
                <polygon id="Fill-3" points="0 0.15993266 10 0.15993266 10 2.58540858 2.63288521 2.58540858 2.63288521 10.6282194 9.05894519 10.6282194 9.05894519 13.0536953 2.63288521 13.0536953 2.63288521 24.1599327 0 24.1599327"></polygon>
                <path d="M21.1394713,11.4567748 C24.2180948,11.4567748 26.3019599,9.9578274 26.3019599,7.08624845 C26.3019599,3.54309055 23.6909754,2.58730108 20.9835916,2.58730108 L14.6109845,2.58730108 L14.6109845,11.4567748 L21.1394713,11.4567748 Z M21.0471741,13.8820379 L14.6109845,13.8820379 L14.6109845,24.1599327 L12,24.1599327 L12,0.15993266 L21.1087056,0.15993266 C27.3582498,0.15993266 29.0975387,3.5746695 29.0975387,6.70309055 C29.0975387,11.010459 26.3634913,12.9894063 23.7832726,13.6273011 L30,24.1599327 L26.8003646,24.1599327 L21.0471741,13.8820379 Z" id="Fill-6"></path>
                <path d="M73.5329353,3.54338735 L73.4670647,3.54338735 L69.3767075,14.9696528 L77.6232925,14.9696528 L73.5329353,3.54338735 Z M72.1156531,0.15993266 L74.8864717,0.15993266 L84,24.1599327 L80.9402003,24.1599327 L78.5263584,17.3951287 L68.4757665,17.3951287 L66.0597997,24.1599327 L63,24.1599327 L72.1156531,0.15993266 Z" id="Fill-9"></path>
                <polygon id="Fill-12" points="0 26.1599327 10 26.1599327 10 28.5856214 2.63288521 28.5856214 2.63288521 36.6291378 9.05894519 36.6291378 9.05894519 39.0548265 2.63288521 39.0548265 2.63288521 47.7363496 10 47.7363496 10 50.1599327 0 50.1599327"></polygon>
                <path d="M19.0603086,47.5286348 C19.7945302,47.7167322 20.4004208,47.7787424 21.9950912,47.7787424 C25.8870968,47.7787424 27.3218794,45.711737 27.3218794,42.0758744 L27.3218794,28.5411229 L12,28.5411229 L12,26.1599327 L30,26.1599327 L30,42.6401669 C30,46.9023321 27.9256662,50.1599327 22.0582048,50.1599327 C20.9431978,50.1599327 19.9228612,50.0979225 19.0603086,49.8788199 L19.0603086,47.5286348 Z" id="Fill-14"></path>
                <path d="M67.6948026,47.7344567 L74.0426068,47.7344567 C80.1979251,47.7344567 83.116942,42.9150866 83.116942,38.0009713 C83.116942,33.1816012 80.5511684,28.5854086 73.3678485,28.5854086 L67.6948026,28.5854086 L67.6948026,47.7344567 Z M73.528606,26.1599327 C83.116942,26.1599327 86,32.4152182 86,38.0325531 C86,44.0330794 82.2518131,50.1599327 74.5544923,50.1599327 L65,50.1599327 L65,26.1599327 L73.528606,26.1599327 Z" id="Fill-16"></path>
                <path d="M99.0010362,28.5956566 C92.4337277,28.5956566 89.8266989,33.7884848 89.8266989,38.6599327 C89.8266989,42.6348988 92.3715569,48.7242087 99.0010362,48.7242087 C105.626371,48.7242087 108.171229,42.6348988 108.171229,38.6599327 C108.171229,33.7884848 105.566272,28.5956566 99.0010362,28.5956566 M99.0010362,26.1599327 C105.943442,26.1599327 111,30.9362351 111,38.6599327 C111,45.9353894 105.814956,51.1599327 99.0010362,51.1599327 C92.0565582,51.1599327 87,46.3836302 87,38.6599327 C87,31.384476 92.1829721,26.1599327 99.0010362,26.1599327" id="Fill-18"></path>
                <polygon id="Fill-21" points="114 26.1599327 117.104375 26.1599327 126.002067 46.3950616 134.899759 26.1599327 138 26.1599327 138 50.1599327 135.368929 50.1599327 135.368929 31.0113101 135.306924 31.0113101 126.847399 50.1599327 125.156734 50.1599327 116.699277 31.1692325 116.633138 31.1692325 116.633138 50.1599327 114 50.1599327"></polygon>
                <polygon id="Fill-23" points="140 26.1599327 143.100508 26.1599327 151.998966 46.3950616 160.897425 26.1599327 164 26.1599327 164 50.1599327 161.366635 50.1599327 161.366635 31.0113101 161.306692 31.0113101 152.846439 50.1599327 151.153561 50.1599327 142.693308 31.1692325 142.629231 31.1692325 142.629231 50.1599327 140 50.1599327"></polygon>
                <polygon id="Fill-25" points="33 26.1599327 43 26.1599327 43 28.5856214 35.6328852 28.5856214 35.6328852 36.6291378 42.0589452 36.6291378 42.0589452 39.0548265 35.6328852 39.0548265 35.6328852 47.7363496 43 47.7363496 43 50.1599327 33 50.1599327"></polygon>
                <polygon id="Fill-27" points="33 0.15993266 43 0.15993266 43 2.58540858 35.6328852 2.58540858 35.6328852 10.6282194 42.0589452 10.6282194 42.0589452 13.0536953 35.6328852 13.0536953 35.6328852 21.7365622 43 21.7365622 43 24.1599327 33 24.1599327"></polygon>
                <polygon id="Fill-30" points="167 26.1599327 177 26.1599327 177 28.5856214 169.634409 28.5856214 169.634409 36.6291378 176.061208 36.6291378 176.061208 39.0548265 169.634409 39.0548265 169.634409 47.7363496 177 47.7363496 177 50.1599327 167 50.1599327"></polygon>
                <polygon id="Fill-32" points="45 26.1599327 48.1435256 26.1599327 60.2544157 45.9465619 60.3154755 45.9465619 60.3154755 26.1599327 63 26.1599327 63 50.1599327 59.8543689 50.1599327 47.7455843 30.3733034 47.6803135 30.3733034 47.6803135 50.1599327 45 50.1599327"></polygon>
            </g>
        </g>
    </g>
</svg>