<?xml version="1.0" encoding="UTF-8"?>
<svg width="177px" height="67px" viewBox="0 0 177 67" version="1.1" xmlns="http://www.w3.org/2000/svg" xmlns:xlink="http://www.w3.org/1999/xlink">
    <!-- Generator: Sketch 61 (89581) - https://sketch.com -->
    <title>Group 5</title>
    <desc>Created with Sketch.</desc>
    <g id="Page-1" stroke="none" stroke-width="1" fill="none" fill-rule="evenodd">
        <g id="front_14yearsmovie_01-copy-20" transform="translate(-1041.000000, -7759.000000)" fill="#222222">
            <g id="Group-5" transform="translate(1041.000000, 7759.000000)">
                <path d="M53.6731686,58.7497613 C52.1156045,60.7679415 49.7552047,62.1342483 45.9428278,62.9963228 C42.1304509,63.8583974 36.8667217,64.215614 29.5006248,64.215614 C22.1351526,64.215614 16.8701739,63.8583974 13.057797,62.9963228 C9.24604486,62.1342483 6.885645,60.7679415 5.32745621,58.7497613 C3.64806108,56.5745558 2.80836351,53.4909815 2.3891395,49.2975958 C1.96929072,45.1035845 1.96929072,39.8010129 1.96929072,33.1878128 C1.96929072,26.5733615 1.96929072,21.2707899 2.3891395,17.0774042 C2.80836351,12.8840185 3.64806108,9.7998186 5.32745621,7.62461315 C6.885645,5.60705848 9.24604486,4.24012609 13.057797,3.37805157 C16.8701739,2.51597705 22.1351526,2.15876039 29.5006248,2.15876039 C36.8667217,2.15876039 42.1304509,2.51597705 45.9428278,3.37805157 C49.7552047,4.24012609 52.1156045,5.60705848 53.6731686,7.62461315 C55.3525637,9.7998186 56.1916365,12.8840185 56.6114853,17.0774042 C57.0313341,21.2707899 57.0313341,26.5733615 57.0313341,33.1878128 C57.0313341,39.8010129 57.0313341,45.1035845 56.6114853,49.2975958 C56.1916365,53.4909815 55.3525637,56.5745558 53.6731686,58.7497613 M55.2301078,6.41908513 C53.208336,3.79970486 50.1675562,2.24196497 45.93658,1.33860096 C41.7056039,0.435862544 36.2838067,0.1875 29.5006248,0.1875 C22.7168181,0.1875 17.2950209,0.435862544 13.0640447,1.33860096 C8.8330686,2.24196497 5.79228879,3.79970486 3.77051697,6.41908513 C1.8849461,8.86079548 0.942785437,12.1408076 0.471705106,16.5168681 C0,20.8923029 0,26.3631604 0,33.1878128 C0,40.011214 0,45.4820715 0.471705106,49.8575064 C0.942785437,54.2335668 1.8849461,57.5135789 3.77051697,59.9559149 C5.79228879,62.5746695 8.8330686,64.1324094 13.0640447,65.0357734 C17.2950209,65.9385119 22.7168181,66.1875 29.5006248,66.1875 C36.2838067,66.1875 41.7056039,65.9385119 45.93658,65.0357734 C50.1675562,64.1324094 53.208336,62.5746695 55.2301078,59.9559149 C57.1150539,57.5135789 58.0578393,54.2335668 58.5289197,49.8575064 C59,45.4820715 59,40.011214 59,33.1878128 C59,26.3631604 59,20.8923029 58.5289197,16.5168681 C58.0578393,12.1408076 57.1150539,8.86079548 55.2301078,6.41908513" id="Fill-1"></path>
                <path d="M29.495142,33.187936 C28.8709652,33.5682962 27.8717865,34.1751209 26.5341763,34.690609 C25.1965661,35.2067227 23.5211442,35.6302488 21.5463406,35.645263 L21.5463406,27.9160687 L21.5463406,20.1875 L20.5700959,20.1875 L19.5926115,20.1875 L19.5926115,27.8560118 L19.5926115,35.5238981 C17.3791703,35.2373768 15.5989959,34.4904194 14.2260549,33.682154 C12.8531139,32.8745142 11.8867866,32.0055664 11.3010398,31.4781919 L10.65021,32.2126374 L10,32.9477085 C10.6663258,33.5482773 11.7708769,34.541718 13.3558025,35.4582109 C14.9413478,36.3753294 17.0066478,37.2148744 19.5926115,37.5095284 L19.5926115,45.3482014 L19.5926115,53.1875 L29.9401856,53.1875 L40.2871399,53.1875 L40.2871399,52.2015664 L40.2871399,51.2156327 L30.9170502,51.2156327 L21.5463406,51.2156327 L21.5463406,44.4185711 L21.5463406,37.6215095 C23.7882944,37.6102488 25.6788,37.1366754 27.1831466,36.5598791 C28.6874932,35.9824573 29.8063007,35.3005616 30.504858,34.8745332 C31.2027955,34.4497559 32.3687106,33.7390829 33.9511568,33.1898128 C35.5342228,32.6411682 37.5350596,32.2539265 39.9022206,32.4760118 C42.2681419,32.6987227 44.1636062,33.4513104 45.6196055,34.2858507 C47.0749849,35.1210166 48.0908992,36.0368839 48.6989602,36.5849028 L49.34979,35.8498318 L50,35.1147607 C49.3200378,34.5023057 48.1838749,33.4775853 46.546883,32.5442014 C44.9086514,31.6101919 42.7695908,30.7662678 40.0832132,30.514154 C37.3955961,30.2626659 35.1387662,30.6936991 33.3585917,31.306154 C31.5784172,31.918609 30.275518,32.7124858 29.495142,33.187936" id="Fill-4"></path>
                <polygon id="Fill-6" points="40 14.1875 29.9996987 14.1875 20 14.1875 20 15.1878174 20 16.1875 29.9996987 16.1875 40 16.1875 40 15.1878174"></polygon>
                <path d="M72.1347613,19.4024745 L76.4905548,19.4024745 C77.2021419,19.4024745 77.6013684,19.2626725 78,19.0352693 L77.7233378,21.1875 L70,21.1875 C70.173732,20.837695 70.2605979,20.5400908 70.2605979,20.0324835 L70.2605979,8.34191649 C70.2605979,7.83490925 70.173732,7.53790501 70,7.1875 L72.3947642,7.1875 C72.2216272,7.53790501 72.1347613,7.83490925 72.1347613,8.34191649 L72.1347613,19.4024745 Z" id="Fill-8"></path>
                <path d="M80.279453,8.40972222 C80.279453,7.87257937 80.1860888,7.55829365 80,7.1875 L82.5732697,7.1875 C82.3871809,7.55829365 82.2931772,7.87257937 82.2931772,8.40972222 L82.2931772,15.8548016 C82.2931772,18.5214683 84.139997,20.2617857 86.5463623,20.2617857 C88.9527276,20.2617857 90.798908,18.6694048 90.798908,15.8548016 L90.798908,8.40972222 C90.798908,7.87257937 90.7055438,7.55829365 90.519455,7.1875 L93,7.1875 C92.8139112,7.55829365 92.7013626,7.87257937 92.7013626,8.40972222 L92.7013626,16.1322619 C92.7013626,19.7062302 90.2022726,22.1875 86.4900881,22.1875 C82.8719071,22.1875 80.279453,19.6509921 80.279453,16.1506746 L80.279453,8.40972222 Z" id="Fill-10"></path>
                <path d="M77.3580247,26.1875 L77.4448907,28.3397307 C77.0462591,28.1123275 76.6464376,27.9725255 75.9348505,27.9725255 L72.1347613,27.9725255 L72.1347613,32.1725855 L76.0740741,32.1725855 C76.5774208,32.1725855 76.8719322,32.0849842 77.2193961,31.9097817 L77.2193961,34.2198147 C76.8719322,34.0452123 76.5774208,33.957011 76.0740741,33.957011 L72.1347613,33.957011 L72.1347613,38.4024745 L76.3519262,38.4024745 C77.0629183,38.4024745 77.6007735,38.2626725 78,38.0346692 L77.5145025,40.1875 L70,40.1875 C70.173732,39.837695 70.260003,39.5400908 70.260003,39.0324835 L70.260003,27.3425165 C70.260003,26.8349092 70.173732,26.537305 70,26.1875 L77.3580247,26.1875 Z" id="Fill-12"></path>
                <path d="M83.1347613,38.4024745 L87.4905548,38.4024745 C88.2021419,38.4024745 88.6013684,38.2626725 89,38.0346692 L88.7227428,40.1875 L81,40.1875 C81.173732,39.837695 81.2605979,39.5400908 81.2605979,39.0324835 L81.2605979,27.3419165 C81.2605979,26.8349092 81.173732,26.537305 81,26.1875 L83.3947642,26.1875 C83.2216272,26.537305 83.1347613,26.8349092 83.1347613,27.3419165 L83.1347613,38.4024745 Z" id="Fill-14"></path>
                <path d="M103.5463,30.38756 L99.7101816,37.9122675 L98.2898184,37.9122675 L94.3980486,30.4229605 L94.1950492,39.0324835 C94.1773421,39.5400908 94.2873792,39.837695 94.4714066,40.1875 L92,40.1875 C92.1846599,39.837695 92.2580179,39.5400908 92.2769898,39.0324835 L92.5716867,27.7097217 C92.5906586,26.8349092 92.4243382,26.537305 92.0556509,26.1875 L94.4347276,26.1875 L99.0271931,35.007626 L103.5463,26.1875 L105.889331,26.1875 C105.520011,26.537305 105.409341,26.8349092 105.428313,27.3425165 L105.72301,39.0324835 C105.741982,39.5400908 105.815973,39.837695 106,40.1875 L103.491282,40.1875 C103.675942,39.837695 103.786611,39.5400908 103.768272,39.0324835 L103.5463,30.38756 Z" id="Fill-16"></path>
                <path d="M116.358025,26.1875 L116.444891,28.3397307 C116.045664,28.1123275 115.647033,27.9725255 114.934851,27.9725255 L111.134761,27.9725255 L111.134761,32.1725855 L115.074074,32.1725855 C115.577421,32.1725855 115.872527,32.0849842 116.219396,31.9097817 L116.219396,34.2198147 C115.872527,34.0452123 115.577421,33.957011 115.074074,33.957011 L111.134761,33.957011 L111.134761,38.4024745 L115.351926,38.4024745 C116.062918,38.4024745 116.600773,38.2626725 117,38.0346692 L116.514502,40.1875 L109,40.1875 C109.173732,39.837695 109.260598,39.5400908 109.260598,39.0324835 L109.260598,27.3425165 C109.260598,26.8349092 109.173732,26.537305 109,26.1875 L116.358025,26.1875 Z" id="Fill-18"></path>
                <path d="M121.289726,32.417389 C121.754946,32.5229905 122.146139,32.5397907 122.611359,32.5397907 C124.788768,32.5397907 125.719209,31.5425765 125.719209,30.2651583 C125.719209,28.9529395 124.788768,27.9551253 122.908743,27.9551253 L121.289726,27.9551253 L121.289726,32.417389 Z M123.299936,26.1875 C126.11104,26.1875 127.822591,28.007326 127.822591,30.247758 C127.822591,32.0501838 126.799617,33.3624025 125.030632,33.957011 C125.34716,34.2198147 125.532865,34.4646182 125.775367,34.7454223 C126.855137,36.0750413 127.990428,37.7202648 128.828334,38.8926815 C129.237396,39.4524895 129.535418,39.8202948 130,40.1875 L127.022336,40.1875 C126.911295,39.7500938 126.761966,39.4524895 126.520102,39.1200848 C125.626675,37.877467 124.733248,36.6528495 123.821315,35.427632 C123.504786,35.0250263 122.983408,34.5000188 122.350351,34.3254163 C121.959796,34.2198147 121.587747,34.2030145 121.289726,34.2030145 L121.289726,39.0324835 C121.289726,39.5400908 121.382897,39.837695 121.568602,40.1875 L119,40.1875 C119.186343,39.837695 119.279515,39.5400908 119.279515,39.0324835 L119.279515,27.3425165 C119.279515,26.8349092 119.186343,26.537305 119,26.1875 L123.299936,26.1875 Z" id="Fill-20"></path>
                <path d="M69,49.1392916 C69,46.7058761 70.9908662,45.1875 73.5064011,45.1875 C74.6593546,45.1875 75.4463577,45.3524454 76.354346,45.7914637 L76.4244217,48.2976309 C75.9871977,47.8404247 75.6026802,47.5845398 75.1660553,47.4014064 C74.7120611,47.2182731 74.2754361,47.0721427 73.5243692,47.0721427 C71.9521599,47.0721427 70.9561279,47.8956156 70.9561279,49.1392916 C70.9561279,50.2732131 71.742532,50.7856101 73.3494797,51.4805133 C74.4676948,51.9559074 75.3056075,52.3585499 75.8823838,52.9625136 C76.6508198,53.7671714 77,54.7725232 77,55.9804506 C77,58.5781845 75.0965786,60.1875 72.4935989,60.1875 C71.1657558,60.1875 70.2224302,59.968618 69.2797035,59.5477877 L69.1742906,57.0779963 C69.6115146,57.5352025 69.9954331,57.7365237 70.432657,57.9378449 C70.9213895,58.1573541 71.6203489,58.3034844 72.3714157,58.3034844 C74.048439,58.3034844 75.0438721,57.3708842 75.0438721,56.0532022 C75.0438721,54.9199079 74.6593546,54.1880017 72.3540466,53.2547743 C69.7157296,52.1936044 69,50.7856101 69,49.1392916" id="Fill-22"></path>
                <path d="M82.9243907,52.3624025 L86.8136801,52.3624025 L84.8161689,47.7951373 L82.9243907,52.3624025 Z M87.6018709,54.148028 L82.1704428,54.148028 L80.5586165,58.0324835 C80.4180398,58.3828885 80.3651734,58.8202948 80.3651734,59.1875 L78,59.1875 C78.2457089,58.837695 78.4379506,58.5046902 78.6313938,58.0324835 L83.9925335,45.1875 L85.7275146,45.1875 L91.3698078,58.0324835 C91.5800721,58.5046902 91.7548919,58.837695 92,59.1875 L89.5122726,59.1875 C89.5122726,58.7326935 89.442585,58.3654883 89.3020082,58.0324835 L87.6018709,54.148028 Z" id="Fill-24"></path>
                <path d="M106.728338,58.0324835 C106.728338,58.5400908 106.765015,58.837695 106.819099,59.1875 L104.897571,59.1875 L96.1217005,48.2499437 L96.1217005,58.0324835 C96.1217005,58.5400908 96.2124617,58.837695 96.3933627,59.1875 L94,59.1875 C94.1809009,58.837695 94.2722839,58.5400908 94.2722839,58.0324835 L94.2722839,46.3425165 C94.2722839,45.8349092 94.1809009,45.537305 94,45.1875 L96.1757842,45.1875 L104.878921,55.967854 L104.878921,46.3425165 C104.878921,45.8349092 104.78816,45.537305 104.607259,45.1875 L107,45.1875 C106.819099,45.537305 106.728338,45.8349092 106.728338,46.3425165 L106.728338,58.0324835 Z" id="Fill-26"></path>
                <path d="M112.255622,56.3040086 C112.255622,56.8250856 112.310315,57.1722718 112.842159,57.3288927 C113.282219,57.467648 114.088786,57.484918 115.170705,57.484918 C118.5994,57.484918 120.836162,55.1403691 120.836162,52.1705278 C120.836162,49.1994954 118.5994,46.9597574 115.116011,46.9597574 L112.255622,46.9597574 L112.255622,56.3040086 Z M115.371875,45.1875 C119.883118,45.1875 123,48.0882614 123,52.1526623 C123,56.2170631 119.810194,59.1875 115.298951,59.1875 C113.08042,59.1875 112.40147,59.0826891 111.30132,59.0826891 L110,59.0826891 C110.182939,58.7355029 110.275352,58.4401267 110.275352,57.9363196 L110.275352,46.3338695 C110.275352,45.8300624 110.182939,45.5346862 110,45.1875 L115.371875,45.1875 Z" id="Fill-28"></path>
                <path d="M128.92379,52.3624025 L132.81368,52.3624025 L130.816169,47.7951373 L128.92379,52.3624025 Z M133.601871,54.148028 L128.169842,54.148028 L126.558016,58.0324835 C126.41804,58.3828885 126.365173,58.8202948 126.365173,59.1875 L124,59.1875 C124.245709,58.837695 124.437951,58.5046902 124.630793,58.0324835 L129.991933,45.1875 L131.727515,45.1875 L137.369207,58.0324835 C137.579471,58.5046902 137.754892,58.837695 138,59.1875 L135.512273,59.1875 C135.512273,58.7326935 135.441984,58.3654883 135.301407,58.0324835 L133.601871,54.148028 Z" id="Fill-30"></path>
                <path d="M108.728338,20.0324835 C108.728338,20.5400908 108.765015,20.837695 108.819099,21.1875 L106.896949,21.1875 L98.1217005,10.2499437 L98.1217005,20.0324835 C98.1217005,20.5400908 98.2118401,20.837695 98.3933627,21.1875 L96,21.1875 C96.1809009,20.837695 96.2722839,20.5400908 96.2722839,20.0324835 L96.2722839,8.3425165 C96.2722839,7.83490925 96.1809009,7.53790501 96,7.1875 L98.1757842,7.1875 L106.878921,17.967854 L106.878921,8.3425165 C106.878921,7.83490925 106.78816,7.53790501 106.607259,7.1875 L109,7.1875 C108.819099,7.53790501 108.728338,7.83490925 108.728338,8.3425165 L108.728338,20.0324835 Z" id="Fill-32"></path>
                <path d="M114.255622,18.3040086 C114.255622,18.8250856 114.310315,19.1722718 114.842159,19.3288927 C115.282219,19.467648 116.088786,19.484918 117.170705,19.484918 C120.5994,19.484918 122.836162,17.1403691 122.836162,14.1705278 C122.836162,11.2000909 120.5994,8.95975743 117.116011,8.95975743 L114.255622,8.95975743 L114.255622,18.3040086 Z M117.371875,7.1875 C121.883118,7.1875 125,10.0882614 125,14.1526623 C125,18.2170631 121.809565,21.1875 117.298951,21.1875 C115.08042,21.1875 114.40147,21.0826891 113.30132,21.0826891 L112,21.0826891 C112.182939,20.7355029 112.275352,20.4401267 112.275352,19.9363196 L112.275352,8.33386948 C112.275352,7.83006242 112.182939,7.5352817 112,7.1875 L117.371875,7.1875 Z" id="Fill-34"></path>
                <path d="M151.720561,57.6443299 C151.720561,58.4496148 151.776193,58.7600634 151.850369,59.1633331 C150.508165,59.8030454 149.091146,60.1875 147.63576,60.1875 C142.302115,60.1875 139,56.9312388 139,52.6878136 C139,48.4437612 142.451107,45.1875 147.243778,45.1875 C149.016331,45.1875 150.172455,45.3706333 151.552386,46.0109728 L151.608018,48.6080795 C151.160403,48.1144975 150.508165,47.730043 149.687113,47.4377822 C149.034875,47.2000852 148.15819,47.0721427 147.262322,47.0721427 C143.514511,47.0721427 141.163896,49.523119 141.163896,52.6878136 C141.163896,55.8706961 143.737678,58.3034844 147.72912,58.3034844 C148.121102,58.3034844 149.034875,58.2119178 149.706296,57.8456511 L149.706296,54.3341321 C149.706296,53.8035472 149.612937,53.4924714 149.426217,53.1262047 L152,53.1262047 C151.81392,53.4924714 151.720561,53.8035472 151.720561,54.3341321 L151.720561,57.6443299 Z" id="Fill-36"></path>
                <path d="M162.358025,45.1875 L162.444891,47.3403308 C162.045664,47.1123275 161.646438,46.9731255 160.934851,46.9731255 L157.134761,46.9731255 L157.134761,51.1725855 L161.074074,51.1725855 C161.577421,51.1725855 161.872527,51.0849842 162.219396,50.9103818 L162.219396,53.2204148 C161.872527,53.0452123 161.577421,52.957611 161.074074,52.957611 L157.134761,52.957611 L157.134761,57.4024745 L161.351331,57.4024745 C162.062918,57.4024745 162.600773,57.2626725 163,57.0352693 L162.514502,59.1875 L155,59.1875 C155.173732,58.837695 155.260003,58.5400908 155.260003,58.0324835 L155.260003,46.3425165 C155.260003,45.8349092 155.173732,45.537305 155,45.1875 L162.358025,45.1875 Z" id="Fill-38"></path>
                <path d="M168.289726,51.417989 C168.754946,51.5229905 169.146139,51.5403908 169.610721,51.5403908 C171.788768,51.5403908 172.719209,50.5425765 172.719209,49.2651583 C172.719209,47.9529395 171.788768,46.9557253 169.908743,46.9557253 L168.289726,46.9557253 L168.289726,51.417989 Z M170.299298,45.1875 C173.11104,45.1875 174.822591,47.007326 174.822591,49.247758 C174.822591,51.0507838 173.799617,52.3624025 172.030632,52.957611 C172.34716,53.2204148 172.532865,53.4652183 172.775367,53.7454223 C173.855137,55.0756413 174.990428,56.7202648 175.827696,57.8926815 C176.237396,58.4530895 176.535418,58.8202948 177,59.1875 L174.022336,59.1875 C173.911295,58.7506938 173.761966,58.4530895 173.519464,58.1206848 C172.626675,56.878067 171.733248,55.6528495 170.821315,54.428232 C170.504786,54.0256263 169.98277,53.5006188 169.350351,53.3254163 C168.959796,53.2204148 168.587747,53.2030145 168.289726,53.2030145 L168.289726,58.0324835 C168.289726,58.5400908 168.382897,58.837695 168.568602,59.1875 L166,59.1875 C166.186343,58.837695 166.279515,58.5400908 166.279515,58.0324835 L166.279515,46.3425165 C166.279515,45.8349092 166.186343,45.537305 166,45.1875 L170.299298,45.1875 Z" id="Fill-40"></path>
            </g>
        </g>
    </g>
</svg>