<?xml version="1.0" encoding="UTF-8"?>
<svg width="100px" height="111px" viewBox="0 0 100 111" version="1.1" xmlns="http://www.w3.org/2000/svg" xmlns:xlink="http://www.w3.org/1999/xlink">
    <!-- Generator: Sketch 61 (89581) - https://sketch.com -->
    <title>Group 19</title>
    <desc>Created with Sketch.</desc>
    <g id="Page-1" stroke="none" stroke-width="1" fill="none" fill-rule="evenodd">
        <g id="front_14yearsmovie_01-copy-20" transform="translate(-772.000000, -7590.000000)" fill="#1C1C1C">
            <g id="Group-19" transform="translate(772.000000, 7590.000000)">
                <path d="M0.14875,95.0998206 C0.1034375,93.9592178 0.0539583333,92.7952738 -0.000208333333,91.6085075 C0.234166667,91.6448159 0.460208333,91.6754187 0.676875,91.7023907 C0.893541667,91.7298813 1.11020833,91.7428486 1.32635417,91.7428486 C1.54302083,91.7428486 1.7596875,91.7298813 1.97635417,91.7023907 C2.19302083,91.6754187 2.41802083,91.6448159 2.6534375,91.6085075 C2.59927083,92.7952738 2.54927083,93.9592178 2.50395833,95.0998206 C2.45916667,96.2419794 2.43677083,97.4054047 2.43677083,98.5916523 C2.43677083,100.857297 2.445625,102.820545 2.46385417,104.48347 C2.4815625,106.146395 2.49979167,107.633484 2.5175,108.945774 C3.79927083,108.945774 5.02635417,108.932288 6.19979167,108.904797 C7.37322917,108.878344 8.63625,108.775124 9.99041667,108.595657 C9.89979167,108.918802 9.855,109.188003 9.855,109.403779 C9.855,109.601919 9.89979167,109.845185 9.99041667,110.132021 C9.1596875,110.095713 8.32947917,110.078078 7.49979167,110.078078 L5.00864583,110.078078 L2.50395833,110.078078 C1.70083333,110.078078 0.8659375,110.095713 -0.000208333333,110.132021 C0.0539583333,109.017353 0.1034375,107.88505 0.14875,106.73511 C0.193541667,105.584134 0.216458333,104.41604 0.216458333,103.229793 L0.216458333,98.5916523 C0.216458333,97.4054047 0.193541667,96.2419794 0.14875,95.0998206" id="Fill-1"></path>
                <path d="M16.8947917,102.555493 C16.7140625,102.249984 16.4479167,101.805465 16.0958333,101.2209 C15.7442708,100.637372 15.3557292,99.9895262 14.9317708,99.2794374 C14.5072917,98.5693486 14.0609375,97.8234701 13.5916667,97.0418019 C13.121875,96.259615 12.6755208,95.5137364 12.2510417,94.8036477 C11.8270833,94.0940776 11.4432292,93.4550495 11.1005208,92.889157 C10.7578125,92.3227458 10.4958333,91.8963813 10.315625,91.6085075 C10.5682292,91.6448159 10.8166667,91.6754187 11.0598958,91.7023907 C11.3041667,91.7298813 11.5515625,91.7428486 11.8046875,91.7428486 C12.0572917,91.7428486 12.3057292,91.7298813 12.5494792,91.7023907 C12.7927083,91.6754187 13.040625,91.6448159 13.29375,91.6085075 C14.10625,93.1723626 14.9317708,94.7092458 15.7708333,96.219157 C16.6104167,97.7285495 17.4994792,99.3022598 18.4380208,100.937694 C18.853125,100.290886 19.2859375,99.5807972 19.7375,98.807428 C20.1885417,98.0350963 20.6395833,97.2435729 21.0911458,96.434414 C21.5421875,95.6262925 21.975,94.8124654 22.390625,93.9944888 C22.8057292,93.1770308 23.19375,92.3813579 23.5552083,91.6085075 C24.0057292,91.6982411 24.3578125,91.7428486 24.6109375,91.7428486 C24.8635417,91.7428486 25.215625,91.6982411 25.6671875,91.6085075 C24.8005208,92.9207972 24.0239583,94.1070449 23.3385417,95.1672505 C22.6520833,96.2284935 22.0479167,97.189629 21.5244792,98.0522131 C21.0005208,98.9153159 20.540625,99.6928346 20.14375,100.384769 C19.7463542,101.076704 19.403125,101.701727 19.1145833,102.258802 C19.1145833,102.923764 19.1192708,103.633853 19.1286458,104.38855 C19.1375,105.143764 19.1510417,105.885493 19.1692708,106.613218 C19.1864583,107.341461 19.209375,108.015241 19.2369792,108.635596 C19.2635417,109.255951 19.2947917,109.754414 19.33125,110.132021 C18.915625,110.095713 18.4739583,110.078078 18.0046875,110.078078 C17.5348958,110.078078 17.0932292,110.095713 16.678125,110.132021 C16.7864583,109.197858 16.8494792,108.065554 16.8677083,106.73511 C16.8854167,105.404148 16.8947917,104.011461 16.8947917,102.555493" id="Fill-4"></path>
                <path d="M42.9067188,109.498543 C42.5546354,109.669193 42.1306771,109.821688 41.6343229,109.957067 C41.1379687,110.091927 40.5827604,110.2133 39.9686979,110.32067 C39.3551563,110.429076 38.7140104,110.481983 38.0468229,110.481983 C36.6207813,110.481983 35.3025521,110.28073 34.0942187,109.876151 C32.8843229,109.471053 31.8421354,108.855885 30.9666146,108.02909 C30.0910937,107.201777 29.4056771,106.191366 28.9093229,104.995263 C28.4124479,103.800716 28.1645312,102.438632 28.1645312,100.910048 C28.1645312,99.3830201 28.4124479,98.0214547 28.9093229,96.8258706 C29.4056771,95.6302864 30.1004687,94.6188379 30.9936979,93.7925621 C31.8874479,92.9657678 32.9567188,92.3360762 34.2020313,91.9050435 C35.4478646,91.4734921 36.8192187,91.2577164 38.3176562,91.2577164 C39.5088021,91.2577164 40.5957813,91.3790902 41.5801563,91.6218379 C42.5634896,91.8645855 43.4348437,92.1566089 44.1926562,92.4979079 C44.0478646,92.7499921 43.9306771,93.0912911 43.8405729,93.5228425 C43.7504688,93.9538752 43.6780729,94.3138472 43.6239062,94.6012023 L43.4614063,94.6551463 C43.2811979,94.4393706 43.0285937,94.1966229 42.7035938,93.9269033 C42.3785938,93.6577023 41.9994271,93.3968005 41.5666146,93.1457537 C41.1332813,92.8936696 40.6457813,92.6825621 40.1046354,92.5119126 C39.5629687,92.3412631 38.9676563,92.255679 38.3176562,92.255679 C37.2525521,92.255679 36.2640104,92.4268472 35.3530729,92.7676276 C34.4410938,93.1094453 33.6473438,93.6348799 32.9702604,94.3454874 C32.2936979,95.0555762 31.7650521,95.9544687 31.3864063,97.0416463 C31.0072396,98.1288238 30.8181771,99.4188098 30.8181771,100.910048 C30.8181771,102.402843 31.0072396,103.69231 31.3864063,104.779487 C31.7650521,105.867184 32.2936979,106.766076 32.9702604,107.476165 C33.6473438,108.186772 34.4410938,108.712207 35.3530729,109.053506 C36.2640104,109.395324 37.2525521,109.565973 38.3176562,109.565973 C38.9676563,109.565973 39.5671354,109.485057 40.1181771,109.323226 C40.6686979,109.161913 41.1739063,108.968441 41.6343229,108.743329 C42.0942188,108.518735 42.5093229,108.276506 42.8796354,108.015604 C43.2494271,107.755221 43.5608854,107.525959 43.8134896,107.327819 L43.9218229,107.435188 L43.6780729,109.026534 C43.5155729,109.17073 43.2588021,109.327894 42.9067188,109.498543" id="Fill-6"></path>
                <path d="M49.2960417,95.0597776 C49.2507292,93.9093196 49.20125,92.7588617 49.1470833,91.6084037 C49.9590625,91.6447121 50.766875,91.6758336 51.57,91.7022869 C52.3726042,91.7297776 53.1814583,91.7427449 53.9939583,91.7427449 C54.8064583,91.7427449 55.6090625,91.7297776 56.4033333,91.7022869 C57.1976042,91.6758336 58.0007292,91.6447121 58.8127083,91.6084037 C58.7585417,91.8781234 58.7314583,92.147843 58.7314583,92.4170439 C58.7314583,92.6867636 58.7585417,92.9564832 58.8127083,93.2262028 C58.2345833,93.1904131 57.7069792,93.1546234 57.2288542,93.118315 C56.7507292,93.0820065 56.2455208,93.0462168 55.7132292,93.0104271 C55.1804167,92.9746374 54.598125,92.9429972 53.966875,92.9155065 C53.3351042,92.8890533 52.57625,92.8755673 51.6929167,92.8755673 C51.6741667,93.4507963 51.6517708,93.9990533 51.6252083,94.5203383 C51.598125,95.0421421 51.5840625,95.6350065 51.5840625,96.2999692 C51.5840625,97.0007215 51.5882292,97.684357 51.598125,98.3493196 C51.6069792,99.0142822 51.610625,99.5179318 51.610625,99.8587121 C52.4054167,99.8587121 53.1179167,99.8498944 53.7496875,99.8317402 C54.3819792,99.8146234 54.9590625,99.7912822 55.4825,99.7643103 C56.0059375,99.7383757 56.48875,99.710885 56.9309375,99.6839131 C57.373125,99.6569411 57.7929167,99.6258196 58.1897917,99.5895112 C58.1361458,99.8587121 58.1090625,100.138287 58.1090625,100.425123 C58.1090625,100.694843 58.1361458,100.964563 58.1897917,101.234282 C57.7210417,101.180338 57.1752083,101.135731 56.5517708,101.099422 C55.929375,101.063633 55.3069792,101.04081 54.6840625,101.031993 C54.0611458,101.022656 53.4741667,101.013838 52.9241667,101.005021 C52.3726042,100.995684 51.9351042,100.991535 51.610625,100.991535 C51.610625,101.153366 51.6069792,101.328684 51.598125,101.517488 C51.5882292,101.706292 51.5840625,101.944371 51.5840625,102.231726 L51.5840625,103.283114 L51.5840625,104.901432 C51.5840625,105.925848 51.5882292,106.770796 51.598125,107.43524 C51.6069792,108.100721 51.6194792,108.604371 51.6377083,108.94567 L53.5340625,108.94567 C54.2194792,108.94567 54.8913542,108.932184 55.5502083,108.904693 C56.2085417,108.878759 56.8325,108.84245 57.4194792,108.797324 C58.0048958,108.752198 58.5153125,108.685287 58.9486458,108.595553 C58.9121875,108.721077 58.8892708,108.860605 58.8804167,109.0131 C58.8710417,109.165595 58.866875,109.305642 58.866875,109.431165 C58.866875,109.718521 58.8939583,109.95245 58.9486458,110.132436 C58.1361458,110.095609 57.3278125,110.077974 56.5246875,110.077974 L54.0757292,110.077974 L51.610625,110.077974 C50.7996875,110.077974 49.9772917,110.095609 49.1470833,110.132436 C49.20125,108.981979 49.2507292,107.83567 49.2960417,106.694549 C49.3408333,105.55239 49.36375,104.388446 49.36375,103.202717 L49.36375,98.5650953 C49.36375,97.378329 49.3408333,96.2102355 49.2960417,95.0597776" id="Fill-8"></path>
                <path d="M64.4582292,95.0597776 C64.4129167,93.9093196 64.3634375,92.7588617 64.3092708,91.6084037 C65.12125,91.6447121 65.9285417,91.6758336 66.7321875,91.7022869 C67.5347917,91.7297776 68.3436458,91.7427449 69.155625,91.7427449 C69.968125,91.7427449 70.7707292,91.7297776 71.5655208,91.7022869 C72.3592708,91.6758336 73.1629167,91.6447121 73.974375,91.6084037 C73.9207292,91.8781234 73.8936458,92.147843 73.8936458,92.4170439 C73.8936458,92.6867636 73.9207292,92.9564832 73.974375,93.2262028 C73.3972917,93.1904131 72.8686458,93.1546234 72.3910417,93.118315 C71.9129167,93.0820065 71.4071875,93.0462168 70.8748958,93.0104271 C70.3426042,92.9746374 69.7603125,92.9429972 69.1285417,92.9155065 C68.4967708,92.8890533 67.7384375,92.8755673 66.8545833,92.8755673 C66.8358333,93.4507963 66.8134375,93.9990533 66.786875,94.5203383 C66.7597917,95.0421421 66.74625,95.6350065 66.74625,96.2999692 C66.74625,97.0007215 66.7498958,97.684357 66.7597917,98.3493196 C66.7686458,99.0142822 66.7728125,99.5179318 66.7728125,99.8587121 C67.5670833,99.8587121 68.2801042,99.8498944 68.911875,99.8317402 C69.5436458,99.8146234 70.12125,99.7912822 70.6446875,99.7643103 C71.168125,99.7383757 71.6509375,99.710885 72.093125,99.6839131 C72.5353125,99.6569411 72.9545833,99.6258196 73.3519792,99.5895112 C73.2983333,99.8587121 73.2707292,100.138287 73.2707292,100.425123 C73.2707292,100.694843 73.2983333,100.964563 73.3519792,101.234282 C72.8827083,101.180338 72.336875,101.135731 71.7139583,101.099422 C71.0915625,101.063633 70.4686458,101.04081 69.84625,101.031993 C69.2228125,101.022656 68.6363542,101.013838 68.0858333,101.005021 C67.5347917,100.995684 67.0972917,100.991535 66.7728125,100.991535 C66.7728125,101.153366 66.7686458,101.328684 66.7597917,101.517488 C66.7498958,101.706292 66.74625,101.944371 66.74625,102.231726 L66.74625,103.283114 L66.74625,104.901432 C66.74625,105.925848 66.7498958,106.770796 66.7597917,107.43524 C66.7686458,108.100721 66.7816667,108.604371 66.7998958,108.94567 L68.6957292,108.94567 C69.3811458,108.94567 70.0535417,108.932184 70.7123958,108.904693 C71.3707292,108.878759 71.9941667,108.84245 72.5811458,108.797324 C73.1670833,108.752198 73.6769792,108.685287 74.1103125,108.595553 C74.0738542,108.721077 74.0514583,108.860605 74.0420833,109.0131 C74.03375,109.165595 74.0290625,109.305642 74.0290625,109.431165 C74.0290625,109.718521 74.0561458,109.95245 74.1103125,110.132436 C73.2983333,110.095609 72.49,110.077974 71.6873958,110.077974 L69.2373958,110.077974 L66.7728125,110.077974 C65.9613542,110.077974 65.1394792,110.095609 64.3092708,110.132436 C64.3634375,108.981979 64.4129167,107.83567 64.4582292,106.694549 C64.5030208,105.55239 64.5259375,104.388446 64.5259375,103.202717 L64.5259375,98.5650953 C64.5259375,97.378329 64.5030208,96.2102355 64.4582292,95.0597776" id="Fill-10"></path>
                <path d="M85.1974479,98.6997477 C86.4698437,101.108551 87.8005729,103.580117 89.1906771,106.114963 C89.3708854,105.773145 89.6333854,105.2835 89.9760937,104.644991 C90.3188021,104.007 90.7161979,103.274089 91.1672396,102.447813 C91.6182812,101.621019 92.1010937,100.726276 92.6156771,99.7646215 C93.1297396,98.803486 93.6531771,97.8278271 94.1859896,96.8392009 C94.7182812,95.8510935 95.2458854,94.8801028 95.7703646,93.9272664 C96.2932812,92.9749486 96.7802604,92.0848738 97.2313021,91.2575607 L97.5839062,91.2575607 C97.7818229,92.9832477 97.9672396,94.6508411 98.1391146,96.2598224 C98.3104687,97.868285 98.4865104,99.4502944 98.6667187,101.004813 C98.8474479,102.55985 99.0281771,104.096734 99.2083854,105.615981 C99.3880729,107.13471 99.5870312,108.639953 99.8036979,110.132229 C99.5870312,110.095921 99.3750521,110.078285 99.1672396,110.078285 L98.5313021,110.078285 L97.8948437,110.078285 C97.6870312,110.078285 97.4755729,110.095921 97.2583854,110.132229 C97.0594271,107.741579 96.8620312,105.422509 96.6635937,103.175537 C96.4646354,100.928565 96.2208854,98.636986 95.9323437,96.2997617 L95.8781771,96.2997617 C94.6328646,98.5648879 93.4099479,100.816009 92.2094271,103.054682 C91.0083854,105.292318 89.8672396,107.633692 88.7844271,110.078285 L88.5411979,110.078285 C87.4583854,107.813159 86.3245312,105.543883 85.1432812,103.270458 C83.9609896,100.995995 82.7745312,98.6727757 81.5828646,96.2997617 L81.5281771,96.2997617 C81.4021354,97.4144299 81.2615104,98.6240187 81.1083854,99.9259346 C80.9552604,101.229925 80.8151562,102.514724 80.6891146,103.782407 C80.5630729,105.04957 80.4547396,106.245154 80.3646354,107.368121 C80.2734896,108.492126 80.2292187,109.413322 80.2292187,110.132229 C79.9396354,110.095921 79.6240104,110.078285 79.2818229,110.078285 C78.9380729,110.078285 78.6224479,110.095921 78.3333854,110.132229 C78.5677604,108.675743 78.8120312,107.139379 79.0651562,105.521061 C79.3177604,103.90378 79.5609896,102.276645 79.7958854,100.640692 C80.0302604,99.0057757 80.2469271,97.3921262 80.4453646,95.8007804 C80.6438021,94.210472 80.8151562,92.6958925 80.9599479,91.2575607 L81.4203646,91.2575607 C82.6656771,93.8105607 83.9250521,96.2909439 85.1974479,98.6997477" id="Fill-12"></path>
                <path d="M53.5614063,1.76547056 C71.2186979,3.59333972 85.0322396,18.5020921 85.0322396,36.5629332 C85.0322396,54.6237743 71.2186979,69.5325266 53.5614063,71.3603958 L53.7457813,73.1239472 C72.3239063,71.2089379 86.8114063,55.5709051 86.8114063,36.5629332 C86.8114063,17.5549612 72.3239063,1.9169285 53.7457813,0.00243785047 L53.5614063,1.76547056 Z M46.0785938,0.000363084112 C27.4905729,1.9049986 12.9921354,17.5476995 12.9921354,36.5629332 C12.9921354,55.5781668 27.4905729,71.2208678 46.0785938,73.126022 L46.2634896,71.3624706 C28.5957813,69.5439379 14.7713021,54.631036 14.7713021,36.5629332 C14.7713021,18.4948304 28.5957813,3.5819285 46.2634896,1.76339579 L46.0785938,0.000363084112 Z" id="Fill-15"></path>
                <path d="M62.0609375,53.1705561 L68.3567708,53.1705561 L68.3567708,19.9561402 L62.0609375,19.9561402 L62.0609375,53.1705561 Z M31.446875,53.1705561 L37.7427083,53.1705561 L37.7427083,19.9561402 L31.446875,19.9561402 L31.446875,53.1705561 Z M60.7255208,18.183771 L49.9020833,34.3119673 L39.078125,18.183771 L29.6390625,18.183771 L29.6390625,54.9418879 L43.4135417,54.9418879 L43.4135417,53.1705561 L39.4921875,53.1705561 L39.4921875,21.9894112 L49.0125,36.1751075 L49.0125,54.9418879 L50.7911458,54.9418879 L50.7911458,36.1751075 L60.3114583,21.9894112 L60.3114583,53.1705561 L56.390625,53.1705561 L56.390625,54.9418879 L70.1651042,54.9418879 L70.1651042,18.183771 L60.7255208,18.183771 Z" id="Fill-17"></path>
            </g>
        </g>
    </g>
</svg>