<?xml version="1.0" encoding="UTF-8"?>
<svg width="90px" height="50px" viewBox="0 0 90 50" version="1.1" xmlns="http://www.w3.org/2000/svg" xmlns:xlink="http://www.w3.org/1999/xlink">
    <!-- Generator: Sketch 61 (89581) - https://sketch.com -->
    <title>Fill 1</title>
    <desc>Created with Sketch.</desc>
    <g id="Page-1" stroke="none" stroke-width="1" fill="none" fill-rule="evenodd">
        <g id="front_14yearsmovie_01-copy-20" transform="translate(-1087.000000, -7515.000000)" fill="#222222">
            <path d="M1119.70822,7526.45217 C1119.70822,7522.68098 1117.21863,7519.5394 1112.51608,7519.5394 C1108.22954,7519.5394 1105.53249,7522.40272 1105.53249,7526.10299 C1105.53249,7530.36304 1108.2987,7532.94701 1114.52158,7536.08968 C1117.63356,7532.80734 1119.70822,7529.94402 1119.70822,7526.45217 L1119.70822,7526.45217 Z M1114.17581,7560.32092 C1120.88385,7560.32092 1125.17147,7557.17935 1125.17147,7552.15 C1125.17147,7547.68152 1122.26696,7544.8193 1115.83553,7541.6057 L1102.00558,7555.71168 C1105.04841,7558.71467 1109.19664,7560.32092 1114.17581,7560.32092 L1114.17581,7560.32092 Z M1093.70805,7564.23179 L1087,7564.23179 L1095.57524,7555.43233 C1092.60157,7550.96277 1091.08015,7545.09646 1091.08015,7538.53288 L1095.98909,7538.53288 C1095.98909,7543.84049 1097.02641,7548.3788 1099.03191,7551.87065 L1111.34044,7539.30108 C1105.39418,7536.22826 1100.41501,7532.38832 1100.41501,7526.10299 C1100.41501,7520.37745 1104.42601,7515 1112.58524,7515 C1120.33061,7515 1125.03316,7520.51712 1125.03316,7526.45217 C1125.03316,7531.06141 1122.40527,7534.76277 1119.08582,7538.32337 C1125.51617,7541.6057 1130.63365,7545.65625 1130.63365,7551.87065 C1130.63365,7560.04157 1123.92668,7565 1114.31412,7565 C1107.81461,7565 1102.55882,7562.83396 1098.68614,7559.13369 L1093.70805,7564.23179 Z M1149.47734,7536.08968 C1155.7013,7532.94701 1158.46642,7530.36304 1158.46642,7526.10299 C1158.46642,7522.40272 1155.77046,7519.5394 1151.48284,7519.5394 C1146.78137,7519.5394 1144.29178,7522.68098 1144.29178,7526.45217 C1144.29178,7529.94402 1146.36644,7532.80734 1149.47734,7536.08968 L1149.47734,7536.08968 Z M1161.99442,7555.71168 L1148.16339,7541.6057 C1141.73304,7544.8193 1138.82853,7547.68152 1138.82853,7552.15 C1138.82853,7557.17826 1143.11615,7560.32092 1149.82311,7560.32092 C1154.80228,7560.32092 1158.95051,7558.71467 1161.99442,7555.71168 L1161.99442,7555.71168 Z M1165.31278,7559.13369 C1161.4401,7562.83396 1156.18539,7565 1149.6848,7565 C1140.07332,7565 1133.36527,7560.04157 1133.36527,7551.87065 C1133.36527,7545.65625 1138.48275,7541.6057 1144.9131,7538.32337 C1141.59473,7534.76277 1138.96684,7531.06141 1138.96684,7526.45217 C1138.96684,7520.51712 1143.66939,7515 1151.41368,7515 C1159.57399,7515 1163.5839,7520.37745 1163.5839,7526.10299 C1163.5839,7532.38832 1158.60582,7536.22826 1152.65847,7539.30108 L1164.96701,7551.87065 C1166.97251,7548.37989 1168.00983,7543.84049 1168.00983,7538.53288 L1172.91985,7538.53288 C1172.91985,7545.09755 1171.39843,7550.96277 1168.42476,7555.43233 L1177,7564.23179 L1170.29195,7564.23179 L1165.31278,7559.13369 Z" id="Fill-1"></path>
        </g>
    </g>
</svg>