<?xml version="1.0" encoding="utf-8"?>
<!-- Generator: Adobe Illustrator 20.1.0, SVG Export Plug-In . SVG Version: 6.00 Build 0)  -->
<svg version="1.1" id="Layer_1" xmlns="http://www.w3.org/2000/svg" xmlns:xlink="http://www.w3.org/1999/xlink" x="0px" y="0px"
	 viewBox="0 0 600 600" style="enable-background:new 0 0 600 600;" xml:space="preserve">
<path fill="#222222" d="M74.1,205.6l-42.1-18l1.3-3l42.1,18L74.1,205.6z M92.5,245.9l-74.4-17L15,242.3l74.4,17L92.5,245.9z
	 M67.5,223.1L24,209l-1,3.1l43.5,14.2L67.5,223.1z M127.9,428l-59.7,47.6l8.6,10.7l59.7-47.6L127.9,428z M85,183l-40.3-21.7
	l-1.5,2.9l40.3,21.7L85,183z M136.5,161.5l-59.7-47.6l-8.6,10.7l59.7,47.6L136.5,161.5z M57.5,265.7l-45.4-6.1l-0.4,3.2l45.4,6.1
	L57.5,265.7z M139.8,115.1l-30.1-34.5l-2.4,2.1l30.1,34.5L139.8,115.1z M96.3,164.2L58.1,139l-1.8,2.7l38.2,25.2L96.3,164.2z
	 M83.4,414.4l-40.3,21.7l1.5,2.9L85,417.3L83.4,414.4z M74.1,394.6l-42.1,18l1.3,3l42.1-18L74.1,394.6z M66.5,374L23,388.2l1,3.1
	l43.5-14.1L66.5,374z M94.6,433.3l-38.2,25.2l1.8,2.7L96.3,436L94.6,433.3z M55.4,287.5l-45.7-2.1l-0.1,3.2l45.7,2.1L55.4,287.5z
	 M55.2,309.5l-45.7,2.1l0.1,3.2l45.7-2.1L55.2,309.5z M89.4,341L15,358l3.1,13.4l74.4-17L89.4,341z M57,331.3l-45.4,6.1l0.4,3.2
	l45.4-6.1L57,331.3z M123.9,130.2L90.8,98.5l-2.2,2.3l33.1,31.6L123.9,130.2z M524.5,205.6l42.1-18l-1.3-3l-42.1,18L524.5,205.6z
	 M515.1,185.8l40.3-21.7l-1.5-2.9L513.5,183L515.1,185.8z M470.6,172.3l59.7-47.6l-8.6-10.7L462,161.5L470.6,172.3z M504,166.9
	l38.2-25.2l-1.8-2.7l-38.2,25.2L504,166.9z M532,226.2l43.5-14.1l-1-3.1L531,223.1L532,226.2z M543.3,290.8l45.7-2.1l-0.1-3.2
	l-45.7,2.1L543.3,290.8z M541.5,269l45.4-6.1l-0.4-3.2l-45.4,6.1L541.5,269z M509.1,259.3l74.4-17l-3.1-13.4l-74.4,17L509.1,259.3z
	 M402.7,29.2l-3-1.1l-16.1,42.9l3,1.1L402.7,29.2z M157,101.6l-26.9-37l-2.6,1.9l26.9,37L157,101.6z M212.7,104.6l-33.1-68.8
	l-12.4,6l33.1,68.8L212.7,104.6z M175.4,89.6l-23.5-39.3l-2.8,1.7l23.5,39.3L175.4,89.6z M398.2,110.6l33.1-68.8l-12.4-6l-33.1,68.8
	L398.2,110.6z M461.2,117.3l30.1-34.5l-2.4-2.1l-30.1,34.5L461.2,117.3z M476.9,132.5l33.1-31.6l-2.2-2.3l-33.1,31.6L476.9,132.5z
	 M444.1,103.5l26.9-37l-2.6-1.9l-26.9,37L444.1,103.5z M425.9,91.3L449.4,52l-2.8-1.7l-23.5,39.3L425.9,91.3z M385.8,495.6
	l33.1,68.8l12.4-6l-33.1-68.8L385.8,495.6z M341.3,540.7l8.2,45.1l3.2-0.6l-8.2-45.1L341.3,540.7z M383.6,529.3l16.1,42.9l3-1.1
	l-16.1-42.9L383.6,529.3z M474.7,470.1l33.1,31.6l2.2-2.3l-33.1-31.6L474.7,470.1z M121.6,467.7l-33.1,31.6l2.2,2.3l33.1-31.6
	L121.6,467.7z M423.1,510.6l23.5,39.3l2.8-1.7l-23.5-39.3L423.1,510.6z M362.7,64.3l3.1,0.9L378,21l-3.1-0.9L362.7,64.3z
	 M341.3,59.5l3.2,0.6l8.2-45.1l-3.2-0.6L341.3,59.5z M362.7,536l12.2,44.1l3.1-0.9l-12.2-44.1L362.7,536z M441.5,498.6l26.9,37
	l2.6-1.9l-26.9-37L441.5,498.6z M531,377.1l43.5,14.2l1-3.1L532,374L531,377.1z M506.1,354.4l74.4,17l3.1-13.4l-74.4-17L506.1,354.4
	z M541,334.5l45.4,6.1l0.4-3.2l-45.4-6.1L541,334.5z M543.2,312.7l45.7,2.1l0.1-3.2l-45.7-2.1L543.2,312.7z M513.5,417.3l40.3,21.7
	l1.5-2.9l-40.3-21.7L513.5,417.3z M502.2,436l38.2,25.2l1.8-2.7L504,433.3L502.2,436z M523.2,397.6l42.1,18l1.3-3l-42.1-18
	L523.2,397.6z M462,438.7l59.7,47.6l8.6-10.7L470.6,428L462,438.7z M458.7,485.1l30.1,34.5l2.4-2.1L461.2,483L458.7,485.1z
	 M220.5,21l12.2,44.1l3.1-0.9l-12.2-44.1L220.5,21z M195.8,571.1l3,1.1l16.1-42.9l-3-1.1L195.8,571.1z M220.5,579.2l3.1,0.9
	l12.2-44.1l-3.1-0.9L220.5,579.2z M200.4,489.7l-33.1,68.8l12.4,6l33.1-68.8L200.4,489.7z M195.8,29.2l16.1,42.9l3-1.1L198.9,28
	L195.8,29.2z M172.6,508.9l-23.5,39.3l2.8,1.7l23.5-39.3L172.6,508.9z M319.5,56.8l3.2,0.3l4.1-45.6l-3.2-0.3L319.5,56.8z
	 M154.4,496.7l-26.9,37l2.6,1.9l26.9-37L154.4,496.7z M137.4,483l-30.1,34.5l2.4,2.1l30.1-34.5L137.4,483z M245.9,585.2l3.2,0.6
	l8.2-45.1l-3.2-0.6L245.9,585.2z M292.4,590.1h13.7v-76.3h-13.7V590.1z M319.5,543.5l4.1,45.6l3.2-0.3l-4.1-45.6L319.5,543.5z
	 M292.4,86.4h13.7V10.1h-13.7V86.4z M271.7,11.4l4.1,45.6l3.2-0.3l-4.1-45.6L271.7,11.4z M245.9,15.1l8.2,45.1l3.2-0.6l-8.2-45.1
	L245.9,15.1z M271.6,588.8l3.2,0.3l4.1-45.6l-3.2-0.3L271.6,588.8z"/>
</svg>
