<?xml version="1.0" encoding="UTF-8"?>
<svg width="202px" height="31px" viewBox="0 0 202 31" version="1.1" xmlns="http://www.w3.org/2000/svg" xmlns:xlink="http://www.w3.org/1999/xlink">
    <!-- Generator: Sketch 61 (89581) - https://sketch.com -->
    <title>Fill 77</title>
    <desc>Created with Sketch.</desc>
    <g id="Page-1" stroke="none" stroke-width="1" fill="none" fill-rule="evenodd">
        <g id="front_14yearsmovie_01-copy-20" transform="translate(-261.000000, -7777.000000)" fill="#222222">
            <g id="Fill-77" transform="translate(261.000000, 7777.000000)">
                <path d="M202,27.9038811 C202,26.1938584 200.61125,24.8077621 198.897953,24.8077621 C197.184825,24.8077621 195.796075,26.1938584 195.796075,27.9038811 C195.796075,29.6137358 197.184825,31 198.897953,31 C200.61125,31 202,29.6137358 202,27.9038811 L202,27.9038811 Z M126.061972,3.09595092 C126.061972,1.38609622 124.673053,0 122.959757,0 C121.246628,0 119.85771,1.38609622 119.85771,3.09595092 C119.85771,4.80580562 121.246628,6.19206985 122.959757,6.19206985 C124.673053,6.19206985 126.061972,4.80580562 126.061972,3.09595092 L126.061972,3.09595092 Z M39.9330433,3.09595092 C39.9330433,1.38609622 38.5442933,0 36.8309967,0 C35.1178683,0 33.7291183,1.38609622 33.7291183,3.09595092 C33.7291183,4.80580562 35.1178683,6.19206985 36.8309967,6.19206985 C38.5442933,6.19206985 39.9330433,4.80580562 39.9330433,3.09595092 L39.9330433,3.09595092 Z M193.088938,30.4939489 C192.108565,30.8311483 191.008843,31 189.790278,31 C188.193132,31 186.877775,30.5492247 185.843872,29.6478421 C184.809632,28.7464596 184.293017,27.3943017 184.293017,25.5915365 L184.293017,12.8937191 L180.759027,12.8937191 L180.759027,10.1504246 C183.376273,9.02726667 185.169865,6.67577543 186.138455,3.09595092 L188.965613,3.09595092 L188.965613,8.58270781 L195.28754,8.58270781 L195.28754,12.8937191 L189.005003,12.8937191 L189.005003,24.5456639 C189.005003,25.7918065 189.528183,26.4146257 190.575553,26.4146257 C191.074157,26.4146257 191.590098,26.2939933 192.123547,26.0555848 L192.380928,26.0555848 L193.088938,30.4939489 Z M172.768412,13.8233276 C171.838875,12.8900228 170.641352,12.4234544 169.175673,12.4234544 C167.709322,12.4234544 166.518363,12.9029597 165.602293,13.8618023 C164.685718,14.8208129 164.123148,15.9347302 163.91391,17.2047303 L174.319603,17.2047303 C174.214563,15.8831506 173.697275,14.7564644 172.768412,13.8233276 L172.768412,13.8233276 Z M162.02925,11.3412913 C163.992522,9.18889389 166.413492,8.11244316 169.293338,8.11244316 C172.17268,8.11244316 174.567895,9.15764372 176.479152,11.2477088 C178.389567,13.3382779 179.345532,16.0424257 179.345532,19.360152 L179.30631,20.9670155 L163.796245,20.9670155 C163.84826,22.6093295 164.398037,23.9735842 165.445407,25.0599476 C166.492103,26.1463111 167.853415,26.6889887 169.529005,26.6889887 C170.864057,26.6889887 172.094237,26.3116345 173.219882,25.5565901 C174.34519,24.8015457 175.209077,23.9473744 175.811542,22.9932362 L176.04704,22.9932362 L178.167535,27.2279701 C177.486458,28.1775721 176.367547,29.0435042 174.810295,29.8259345 C173.252538,30.6087008 171.492277,31 169.529005,31 C166.282697,31 163.730427,29.9539594 161.872027,27.8608701 C160.013122,25.7679488 159.084258,23.0080212 159.084258,19.5805833 C159.084258,16.2408474 160.065978,13.4943608 162.02925,11.3412913 L162.02925,11.3412913 Z M145.144912,12.4234544 C143.36445,12.4234544 141.977383,13.1331357 140.982702,14.5513221 C139.987515,15.9701806 139.490595,17.6780192 139.490595,19.6745018 C139.490595,21.7239081 139.981455,23.4055368 140.963007,24.719052 C141.944727,26.0323992 143.338695,26.6889887 145.144912,26.6889887 C146.9247,26.6889887 148.338363,26.0520565 149.385565,24.7778561 C150.432262,23.5041596 150.956452,21.8292514 150.956452,19.7532993 C150.956452,17.5990537 150.438995,15.8391315 149.405428,14.4730287 C148.370852,13.1067579 146.951297,12.4234544 145.144912,12.4234544 L145.144912,12.4234544 Z M155.550437,30.5297354 L151.741727,30.5297354 L151.231172,27.6876501 L151.113338,27.6876501 C149.699843,29.8958273 147.48727,31 144.477302,31 C141.4404,31 139.06488,29.9453908 137.350573,27.8365084 C135.635762,25.727458 134.778777,23.0068451 134.778777,19.6745018 C134.778777,16.3712245 135.70764,13.6181854 137.566713,11.4160565 C139.425113,9.21409564 141.780938,8.11244316 144.634525,8.11244316 C145.943148,8.11244316 147.147573,8.38058978 148.246958,8.91570692 C149.346343,9.45166413 150.18397,10.1245508 150.760007,10.934199 L150.83845,10.934199 L150.83845,3.09595092 L155.550437,3.09595092 L155.550437,30.5297354 Z M126.729413,19.7435546 L126.65097,19.7435546 C126.442237,20.1256131 126.006758,20.4564281 125.343357,20.7361675 C124.680292,21.0160749 123.61996,21.3208481 122.16354,21.651663 C120.809467,21.9571082 119.87084,22.3386627 119.347323,22.7968305 C118.82347,23.2548303 118.562048,23.826742 118.562048,24.5137417 C118.562048,25.2009094 118.810677,25.7348505 119.307597,26.116237 C119.804517,26.4984635 120.471285,26.6889887 121.308743,26.6889887 C122.712475,26.6889887 123.966727,26.3074342 125.071667,25.5444933 C126.176438,24.7813843 126.729413,23.8524478 126.729413,22.7581879 L126.729413,19.7435546 Z M122.979452,8.11244316 C125.536772,8.11244316 127.585893,8.79826677 129.128332,10.169914 C130.670097,11.5415612 131.4414,13.4422772 131.4414,15.8722298 L131.4414,30.5297354 L127.711133,30.5297354 L127.197548,27.6483353 L127.079042,27.6483353 C125.710323,29.8828905 123.53916,31 120.56471,31 C118.366277,31 116.697588,30.4610186 115.558813,29.3833918 C114.419533,28.305597 113.85023,26.8316306 113.85023,24.9613248 C113.85023,23.1965303 114.385867,21.7428934 115.456972,20.6002461 C116.528245,19.4581028 118.309212,18.6277891 120.800208,18.1084651 C123.23717,17.6156869 124.834317,17.1549989 125.59249,16.7265691 C126.350327,16.2978034 126.729413,15.7203473 126.729413,14.9935288 C126.729413,14.2144588 126.410422,13.5918075 125.77227,13.1245671 C125.134287,12.6573267 124.190105,12.4234544 122.94023,12.4234544 C120.335103,12.4234544 118.274872,13.8513856 116.759535,16.7067438 L116.520165,16.7067438 L114.048358,12.8515481 C115.031762,11.3792619 116.301163,10.2213256 117.85589,9.37757098 C119.410617,8.53432045 121.118695,8.11244316 122.979452,8.11244316 L122.979452,8.11244316 Z M111.25958,13.8414729 L111.024082,13.8414729 C110.255808,13.0790359 109.293783,12.6978175 108.137838,12.6978175 C106.88123,12.6978175 105.9389,13.2194937 105.310512,14.2630141 C104.68246,15.3063666 104.36835,16.7662199 104.36835,18.6419021 L104.36835,30.5297354 L99.6563633,30.5297354 L99.6563633,8.58270781 L103.622128,8.58270781 L103.975628,11.351204 L104.093462,11.351204 C104.51177,10.2967628 105.127365,9.49316301 105.9389,8.94090867 C106.74993,8.38865433 107.666673,8.11244316 108.687615,8.11244316 C110.128548,8.11244316 111.259748,8.50155817 112.082057,9.27928416 L111.25958,13.8414729 Z M90.821725,19.6719816 L90.7437867,19.6719816 C90.5352217,20.0577364 90.0983967,20.3914076 89.43449,20.6743392 C88.7700783,20.9572708 87.7087367,21.2657403 86.2497917,21.5997474 C84.895045,21.9082169 83.9569233,22.2939716 83.4361,22.7563397 C82.9146033,23.2192119 82.6545283,23.797508 82.6545283,24.4912282 C82.6545283,25.1854524 82.9016417,25.7251058 83.3968783,26.1108606 C83.8912733,26.4966154 84.5558533,26.6889887 85.3902817,26.6889887 C86.79637,26.6889887 88.0534833,26.303906 89.1609483,25.5322284 C90.26774,24.7612229 90.821725,23.8230458 90.821725,22.7178651 L90.821725,19.6719816 Z M87.07008,8.11244316 C89.6272317,8.11244316 91.6777,8.79826677 93.2201383,10.169914 C94.7624083,11.5415612 95.5337117,13.4422772 95.5337117,15.8722298 L95.5337117,30.5297354 L91.803445,30.5297354 L91.2487867,27.5376156 L91.1205167,27.5376156 C89.7603833,29.8462639 87.6025183,31 84.64709,31 C82.451855,31 80.7861967,30.4499298 79.6487683,29.3501255 C78.51134,28.2504891 77.9425417,26.7464487 77.9425417,24.8383403 C77.9425417,23.090851 78.4768317,21.651663 79.5469267,20.5207765 C80.6168533,19.389554 82.3949583,18.5673049 84.8820833,18.0528532 C87.33066,17.5641073 88.9326883,17.1079556 89.688505,16.6837262 C90.4438167,16.2598327 90.821725,15.687921 90.821725,14.9683271 C90.821725,14.1973216 90.50206,13.5808868 89.8640767,13.1178466 C89.225925,12.6548065 88.2817433,12.4234544 87.0313633,12.4234544 C84.449635,12.4234544 82.408425,13.8372726 80.9077333,16.6645728 L80.664155,16.6645728 L78.1455517,12.8476839 C79.12845,11.3769098 80.3966733,10.2194774 81.9500533,9.37689894 C83.5036017,8.53432045 85.2103333,8.11244316 87.07008,8.11244316 L87.07008,8.11244316 Z M67.02663,8.11244316 C69.5396783,8.11244316 71.3980783,8.81775612 72.602335,10.2287181 C73.806255,11.639512 74.40872,13.4165714 74.40872,15.5587201 L74.40872,30.5297354 L69.6967333,30.5297354 L69.6967333,17.4790934 C69.6967333,14.1086114 68.479515,12.4234544 66.0450783,12.4234544 C64.6049867,12.4234544 63.4534183,13.0113272 62.5895317,14.1869048 C61.7258133,15.3626505 61.29387,16.9305353 61.29387,18.8900553 L61.29387,30.5297354 L56.5818833,30.5297354 L56.5818833,17.4399467 C56.5818833,14.0956745 55.39042,12.4234544 53.0086717,12.4234544 C51.516565,12.4234544 50.3447967,13.0051108 49.4943767,14.1674155 C48.6434517,15.3302242 48.2182417,16.9046615 48.2182417,18.8900553 L48.2182417,30.5297354 L43.506255,30.5297354 L43.506255,8.58270781 L47.4329667,8.58270781 L47.7470767,11.4829251 L47.9041317,11.4829251 C49.317795,9.23610516 51.4116933,8.11244316 54.1866683,8.11244316 C57.0924383,8.11244316 59.107725,9.39286005 60.2337067,11.9531898 L60.3513717,11.9531898 C60.9011483,10.8300318 61.765035,9.90915989 62.9430317,9.19023798 C64.1210283,8.47182011 65.4816667,8.11244316 67.02663,8.11244316 L67.02663,8.11244316 Z M34.4750033,30.5297354 L39.18699,30.5297354 L39.18699,8.58270781 L34.4750033,8.58270781 L34.4750033,30.5297354 Z M25.44392,30.5297354 L30.1559067,30.5297354 L30.1559067,3.09595092 L25.44392,3.09595092 L25.44392,30.5297354 Z M10.4447467,16.3424945 L22.69571,30.5297354 L16.0204517,30.5297354 L5.10454,17.5182401 L5.02592833,17.5182401 L5.02592833,30.5297354 L0,30.5297354 L0,3.09595092 L5.02592833,3.09595092 L5.02592833,15.715475 L5.10454,15.715475 L15.7063417,3.09595092 L21.9496567,3.09595092 L10.4447467,16.3424945 Z" id="Fill-1"></path>
            </g>
        </g>
    </g>
</svg>