<svg version="1.1" xmlns="http://www.w3.org/2000/svg" xmlns:xlink="http://www.w3.org/1999/xlink" x="0px" y="0px"
	 viewBox="0 0 889.725 250" enable-background="new 0 0 889.725 250" xml:space="preserve">
<g>
	<path fill="#FFF" d="M0,182.5V7.5h67.25c15.5,0,27.875,4.25,37.125,12.75s13.875,19.336,13.875,32.5c0,17-7.25,28.668-21.75,35v0.75
		c7.832,2.5,14.5,7.418,20,14.75c5.5,7.336,8.25,16.5,8.25,27.5c0,16.336-5.043,29.043-15.125,38.125
		C99.539,177.961,84,182.5,63,182.5H0z M20.75,81.5H63.5c22.832,0,34.25-9.164,34.25-27.5c0-8.832-3.043-15.625-9.125-20.375
		C82.539,28.875,74.082,26.5,63.25,26.5h-42.5V81.5z M20.75,163.5h39.5c14.664,0,25.664-2.582,33-7.75c7.332-5.164,11-13.5,11-25
		c0-11.164-3.5-19.082-10.5-23.75c-7-4.664-18-7-33-7h-40V163.5z"/>
	<path fill="#FFF" d="M209.997,186.25c-17.5,0-31.918-6.164-43.25-18.5c-11.336-12.332-17-29.5-17-51.5c0-21.664,5.832-38.75,17.5-51.25
		c11.664-12.5,25.914-18.75,42.75-18.75c16.664,0,30.707,6.25,42.125,18.75c11.414,12.5,17.125,29.586,17.125,51.25
		c0,22-5.586,39.168-16.75,51.5C241.329,180.086,227.161,186.25,209.997,186.25z M209.997,167.75
		c11.164,0,20.457-4.539,27.875-13.625c7.414-9.082,11.125-21.707,11.125-37.875c0-16.164-3.668-28.789-11-37.875
		c-7.336-9.082-16.668-13.625-28-13.625c-11.668,0-21.25,4.461-28.75,13.375c-7.5,8.918-11.25,21.625-11.25,38.125
		s3.75,29.211,11.25,38.125C188.747,163.293,198.329,167.75,209.997,167.75z"/>
	<path fill="#FFF" d="M353.244,186.25c-17.5,0-31.918-6.164-43.25-18.5c-11.336-12.332-17-29.5-17-51.5c0-21.664,5.832-38.75,17.5-51.25
		c11.664-12.5,25.914-18.75,42.75-18.75c16.664,0,30.707,6.25,42.125,18.75c11.414,12.5,17.125,29.586,17.125,51.25
		c0,22-5.586,39.168-16.75,51.5C384.576,180.086,370.408,186.25,353.244,186.25z M353.244,167.75
		c11.164,0,20.457-4.539,27.875-13.625c7.414-9.082,11.125-21.707,11.125-37.875c0-16.164-3.668-28.789-11-37.875
		c-7.336-9.082-16.668-13.625-28-13.625c-11.668,0-21.25,4.461-28.75,13.375c-7.5,8.918-11.25,21.625-11.25,38.125
		s3.75,29.211,11.25,38.125C331.994,163.293,341.576,167.75,353.244,167.75z"/>
	<path fill="#FFF" d="M444.991,182.5V0h20.5v110.75h0.5L521.741,50h27.25l-48.5,52.5l54.5,80h-23.75l-45.5-67.25h-0.5l-19.75,21.25v46H444.991z"
		/>
</g>
</svg>
